<?xml version="1.0" standalone="no"?>
<!DOCTYPE svg PUBLIC "-//W3C//DTD SVG 20010904//EN"
 "http://www.w3.org/TR/2001/REC-SVG-20010904/DTD/svg10.dtd">
<svg version="1.0" xmlns="http://www.w3.org/2000/svg"
 width="260.000000pt" height="260.000000pt" viewBox="0 0 260.000000 260.000000"
 preserveAspectRatio="xMidYMid meet">
<metadata>
Created by potrace 1.11, written by Peter Selinger 2001-2013
</metadata>
<g transform="translate(0.000000,260.000000) scale(0.100000,-0.100000)"
fill="#000000" stroke="none">
<path d="M525 2581 c-240 -59 -408 -215 -496 -461 l-24 -65 -2 -730 c-2 -799
-3 -789 57 -921 90 -199 261 -338 475 -388 61 -14 158 -15 790 -13 l720 2 80
27 c237 81 404 264 459 503 23 104 23 1424 -1 1530 -54 242 -220 422 -466 507
-61 22 -74 22 -792 24 -666 3 -736 1 -800 -15z"/>
</g>
</svg>
