<?xml version="1.0" encoding="UTF-8" standalone="no"?>
<svg
   xmlns:dc="http://purl.org/dc/elements/1.1/"
   xmlns:cc="http://creativecommons.org/ns#"
   xmlns:rdf="http://www.w3.org/1999/02/22-rdf-syntax-ns#"
   xmlns:svg="http://www.w3.org/2000/svg"
   xmlns="http://www.w3.org/2000/svg"
   xmlns:sodipodi="http://sodipodi.sourceforge.net/DTD/sodipodi-0.dtd"
   xmlns:inkscape="http://www.inkscape.org/namespaces/inkscape"
   viewBox="0 0 320 320"
   height="320"
   width="320"
   xml:space="preserve"
   version="1.1"
   id="svg3991"
   sodipodi:docname="hp_star_no_fill.svg"
   inkscape:version="0.92.3 (2405546, 2018-03-11)"><sodipodi:namedview
     pagecolor="#ffffff"
     bordercolor="#666666"
     borderopacity="1"
     objecttolerance="10"
     gridtolerance="10"
     guidetolerance="10"
     inkscape:pageopacity="0"
     inkscape:pageshadow="2"
     inkscape:window-width="1366"
     inkscape:window-height="713"
     id="namedview26"
     showgrid="false"
     inkscape:zoom="1.475"
     inkscape:cx="107.86416"
     inkscape:cy="142.34265"
     inkscape:window-x="0"
     inkscape:window-y="0"
     inkscape:window-maximized="1"
     inkscape:current-layer="g4003" /><metadata
     id="metadata3997"><rdf:RDF><cc:Work
         rdf:about=""><dc:format>image/svg+xml</dc:format><dc:type
           rdf:resource="http://purl.org/dc/dcmitype/StillImage" /><dc:title></dc:title></cc:Work></rdf:RDF></metadata><defs
     id="defs3995"><clipPath
       id="clipPath4005"
       clipPathUnits="userSpaceOnUse"><path
         id="path4007"
         d="M 0,256 256,256 256,0 0,0 0,256 Z" /></clipPath></defs><g
     transform="matrix(1.25,0,0,-1.25,0,320)"
     id="g3999"><g
       id="g4001"><g
         clip-path="url(#clipPath4005)"
         id="g4003"><g
           transform="translate(193.2931,4.4984)"
           id="g4009"><path
             id="path4011"
             style="fill:#543224;fill-opacity:1;fill-rule:nonzero;stroke:none"
             d="M 0,0 C -4.898,-0.001 -10.01,1.398 -15.192,4.16 L -65.098,30.747 -115.002,4.16 C -120.186,1.4 -125.297,0 -130.194,0 c -6.873,0 -12.998,2.764 -17.245,7.786 -3.47,4.102 -7.184,11.5 -5.175,23.451 l 9.457,56.224 -40.116,38.783 c -8.466,8.185 -11.671,18.084 -8.792,27.16 2.878,9.074 11.202,15.318 22.836,17.126 l 55.889,8.695 24.975,49.906 c 5.263,10.514 13.743,16.545 23.267,16.545 9.524,0 18.005,-6.029 23.267,-16.543 l 24.977,-49.908 55.888,-8.695 c 11.634,-1.808 19.957,-8.052 22.835,-17.126 2.879,-9.076 -0.326,-18.975 -8.79,-27.159 L 12.961,87.461 22.418,31.237 C 24.427,19.286 20.713,11.889 17.244,7.787 12.997,2.766 6.873,0 0,0" /></g><g
           transform="translate(138.5421,227.1638)"
           id="g4013"><path
             id="path4015"
             style="fill:#ffffff;fill-opacity:1;fill-rule:nonzero;stroke:none"
             d="m 0,0 28.312,-56.571 63.252,-9.84 c 12.616,-1.963 15.401,-10.748 6.223,-19.623 l -45.584,-44.068 10.718,-63.722 c 2.116,-12.591 -5.301,-17.932 -16.57,-11.929 l -56.698,30.205 -56.698,-30.205 c -11.268,-6.003 -18.686,-0.662 -16.569,11.929 l 10.718,63.722 -45.584,44.068 c -9.179,8.875 -6.393,17.66 6.222,19.623 l 63.254,9.84 28.31,56.57 C -14.979,11.416 -5.714,11.416 0,0" /></g><g
           transform="translate(190.7448,97.0613)"
           id="g4017"><path
             id="path4019"
             style="fill:#ffdd15;fill-opacity:1;fill-rule:nonzero;stroke:none"
             d="M 0,0 10.718,-63.722" /></g><g
           transform="translate(181.4393,100.1232)"
           id="g4021" /><g
           transform="translate(60.4723,114.1207)"
           id="g4025" /><g
           transform="translate(60.4716,114.1204)"
           id="g4029" /><g
           transform="translate(70.2625,28.7111)"
           id="g4033" /></g></g></g></svg>