<?xml version="1.0" encoding="UTF-8" standalone="no"?>
<svg
   xmlns:dc="http://purl.org/dc/elements/1.1/"
   xmlns:cc="http://creativecommons.org/ns#"
   xmlns:rdf="http://www.w3.org/1999/02/22-rdf-syntax-ns#"
   xmlns:svg="http://www.w3.org/2000/svg"
   xmlns="http://www.w3.org/2000/svg"
   id="svg10241"
   version="1.1"
   viewBox="0 0 26.534163 25.787952"
   height="25.787952mm"
   width="26.534163mm">
  <defs
     id="defs10235" />
  <metadata
     id="metadata10238">
    <rdf:RDF>
      <cc:Work
         rdf:about="">
        <dc:format>image/svg+xml</dc:format>
        <dc:type
           rdf:resource="http://purl.org/dc/dcmitype/StillImage" />
        <dc:title></dc:title>
      </cc:Work>
    </rdf:RDF>
  </metadata>
  <g
     transform="translate(-1.0151186,-0.96140641)"
     id="layer1">
    <g
       transform="matrix(1.9646841,0,0,1.9646841,1.038325,-226.68878)"
       id="g6782"
       style="display:inline;opacity:0.98999999">
      <path
         id="path6756"
         style="display:inline;fill:#1bc000;fill-opacity:1;stroke:none;stroke-width:0.08761629px;stroke-linecap:butt;stroke-linejoin:miter;stroke-opacity:1"
         d="m 8.7478025,124.22705 v -7.9375 l 2.4993725,7.9375 z m 1.2496868,0 1.2496857,-7.9375 1.249686,7.9375 z m -3.2491842,0 0.7860927,-7.84668 0.963468,7.84668 z m -5.4986188,0 0.6971901,-8.27427 1.8021821,8.27427 z m 3.7490583,0 -0.1616733,-7.9786 2.4111083,7.9786 z m -4.99874433333333,0 L 0.75427793,115.87114 2.4993725,124.22705 c -0.8532492,-0.023 -1.2496862,0 -2.49937223333333,0 z m 2.49937223333333,0 1.4990858,-8.0352 1.0002863,8.0352 z" />
      <g
         id="g6719"
         transform="translate(0,-1.5875)">
        <path
           id="path6585"
           style="display:inline;fill:#1f4915;fill-opacity:1;stroke:none;stroke-width:0.09014685px;stroke-linecap:butt;stroke-linejoin:miter;stroke-opacity:1"
           d="m 9.2604166,128.46042 v -7.9375 l 2.6458334,7.9375 z m 1.3229164,0 1.322917,-7.9375 1.322917,7.9375 z m -3.4395831,0 0.832157,-7.84668 1.0199264,7.84668 z m -5.8208333,0 0.7380448,-8.27427 1.9077885,8.27427 z m 3.96875,0 -0.1711473,-7.9786 2.5523973,7.9786 z M -6.666667e-8,128.46042 0.79847774,120.10451 2.6458333,128.46042 c -0.9032488,-0.023 -1.3229167,0 -2.64583336666667,0 z m 2.64583336666667,0 1.586931,-8.0352 1.0589023,8.0352 z" />
        <path
           d="m 9.6043748,128.98958 v -7.9375 l 2.5929162,7.9375 z m 1.2964582,0 1.296458,-7.9375 1.296459,7.9375 z m -3.3707915,0 0.8155139,-7.84668 0.9995278,7.84668 z m -5.7044163,0 0.7232839,-8.27427 1.8696326,8.27427 z m 3.8893748,0 -0.1677243,-7.9786 2.5013492,7.9786 z m -5.18583307,0 0.78250817,-8.35591 1.8104084,8.35591 c -0.8851838,-0.023 -1.2964583,0 -2.59291657,0 z m 2.59291657,0 1.5551923,-8.0352 1.0377242,8.0352 z"
           style="display:inline;fill:#158303;fill-opacity:1;stroke:none;stroke-width:0.08924084px;stroke-linecap:butt;stroke-linejoin:miter;stroke-opacity:1"
           id="path6587" />
        <path
           id="path6589"
           style="display:inline;fill:#0e6900;fill-opacity:1;stroke:none;stroke-width:0.09014685px;stroke-linecap:butt;stroke-linejoin:miter;stroke-opacity:1"
           d="m 9.260417,128.98958 v -7.9375 l 2.645833,7.9375 z m 1.322916,0 1.322917,-7.9375 1.322917,7.9375 z m -3.439583,0 0.832157,-7.84668 1.019927,7.84668 z m -5.8208333,0 0.7380448,-8.27427 1.9077885,8.27427 z m 3.96875,0 -0.1711473,-7.9786 2.5523973,7.9786 z m -5.2916667,0 0.7984778,-8.35591 1.8473556,8.35591 c -0.9032488,-0.023 -1.3229167,0 -2.6458334,0 z m 2.6458334,0 1.586931,-8.0352 1.0589023,8.0352 z" />
        <path
           id="path6687"
           d="m 7.9375,128.98958 v -7.9375 l 2.645833,7.9375 z"
           style="display:inline;fill:#0f3f07;fill-opacity:1;stroke:none;stroke-width:0.09014685px;stroke-linecap:butt;stroke-linejoin:miter;stroke-opacity:1" />
        <path
           id="path6685"
           d="m 9.827381,128.98958 1.322916,-7.9375 1.322917,7.9375 z"
           style="display:inline;fill:#0f3f07;fill-opacity:1;stroke:none;stroke-width:0.09014685px;stroke-linecap:butt;stroke-linejoin:miter;stroke-opacity:1" />
        <path
           id="path6683"
           d="m 5.8208333,128.98958 0.9807565,-7.84668 1.2020561,7.84668 z"
           style="display:inline;fill:#0f3f07;fill-opacity:1;stroke:none;stroke-width:0.09786525px;stroke-linecap:butt;stroke-linejoin:miter;stroke-opacity:1" />
        <path
           id="path6681"
           d="m 0,128.98958 0.73804478,-8.27427 1.90778852,8.27427 z"
           style="display:inline;fill:#0f3f07;fill-opacity:1;stroke:none;stroke-width:0.09014685px;stroke-linecap:butt;stroke-linejoin:miter;stroke-opacity:1" />
        <path
           id="path6679"
           d="M 3.7924342,128.98958 3.6086146,121.01098 6.35,128.98958 Z"
           style="display:inline;fill:#0f3f07;fill-opacity:1;stroke:none;stroke-width:0.09342464px;stroke-linecap:butt;stroke-linejoin:miter;stroke-opacity:1" />
        <path
           id="use6555"
           d="m 1.3229167,128.98958 1.586931,-8.0352 1.0589023,8.0352 z"
           style="display:inline;fill:#0f3f07;fill-opacity:1;stroke:none;stroke-width:0.09014685px;stroke-linecap:butt;stroke-linejoin:miter;stroke-opacity:1" />
        <path
           id="path6655"
           d="m 12.969234,120.64081 -0.798401,8.35608 c 0.591041,0 0.968786,-0.005 1.322916,-0.008 v -5.97586 z"
           style="display:inline;fill:#0f3f07;fill-opacity:1;stroke:none;stroke-width:0.09014685px;stroke-linecap:butt;stroke-linejoin:miter;stroke-opacity:1" />
        <path
           id="path6667"
           d="m -0.01181176,123.01048 v 5.97586 c 0.438513,-0.004 0.8232134,-0.005 1.32291656,0.008 z"
           style="display:inline;fill:#0f3f07;fill-opacity:1;stroke:none;stroke-width:0.09014685px;stroke-linecap:butt;stroke-linejoin:miter;stroke-opacity:1" />
      </g>
      <path
         id="path6721"
         style="display:inline;fill:#1f4915;fill-opacity:1;stroke:none;stroke-width:0.09014685px;stroke-linecap:butt;stroke-linejoin:miter;stroke-opacity:1"
         d="m 9.2604166,126.87291 v -7.9375 l 2.6458334,7.9375 z m 1.3229164,0 1.322917,-7.9375 1.322917,7.9375 z m -3.4395831,0 0.832157,-7.84668 1.0199264,7.84668 z m -5.8208333,0 0.7380448,-8.27427 1.9077885,8.27427 z m 3.96875,0 -0.1711473,-7.9786 2.5523973,7.9786 z M -6.666667e-8,126.87291 0.79847774,118.517 2.6458333,126.87291 c -0.9032488,-0.023 -1.3229167,0 -2.64583336666667,0 z m 2.64583336666667,0 1.586931,-8.0352 1.0589023,8.0352 z" />
      <path
         d="m 9.6043748,125.28539 v -7.9375 l 2.5929162,7.9375 z m 1.2964582,0 1.296458,-7.9375 1.296459,7.9375 z m -3.3707915,0 0.8155139,-7.84668 0.9995278,7.84668 z m -5.7044163,0 0.7232839,-8.27427 1.8696326,8.27427 z m 3.8893748,0 -0.1677243,-7.9786 2.5013492,7.9786 z m -5.18583307,0 0.78250817,-8.35591 1.8104084,8.35591 c -0.8851838,-0.023 -1.2964583,0 -2.59291657,0 z m 2.59291657,0 1.5551923,-8.0352 1.0377242,8.0352 z"
         style="display:inline;fill:#158303;fill-opacity:1;stroke:none;stroke-width:0.08924084px;stroke-linecap:butt;stroke-linejoin:miter;stroke-opacity:1"
         id="path6723" />
      <path
         id="path6725"
         style="display:inline;fill:#0e6900;fill-opacity:1;stroke:none;stroke-width:0.09014685px;stroke-linecap:butt;stroke-linejoin:miter;stroke-opacity:1"
         d="m 9.260417,128.46041 v -7.9375 l 2.645833,7.9375 z m 1.322916,0 1.322917,-7.9375 1.322917,7.9375 z m -3.439583,0 0.832157,-7.84668 1.019927,7.84668 z m -5.8208333,0 0.7380448,-8.27427 1.9077885,8.27427 z m 3.96875,0 -0.1711473,-7.9786 2.5523973,7.9786 z m -5.2916667,0 0.7984778,-8.35591 1.8473556,8.35591 c -0.9032488,-0.023 -1.3229167,0 -2.6458334,0 z m 2.6458334,0 1.586931,-8.0352 1.0589023,8.0352 z" />
      <path
         id="path6727"
         d="m 7.9375,128.98958 v -7.9375 l 2.645833,7.9375 z"
         style="display:inline;fill:#0f3f07;fill-opacity:1;stroke:none;stroke-width:0.09014685px;stroke-linecap:butt;stroke-linejoin:miter;stroke-opacity:1" />
      <path
         id="path6729"
         d="m 9.827381,128.98958 1.322916,-7.9375 1.322917,7.9375 z"
         style="display:inline;fill:#0f3f07;fill-opacity:1;stroke:none;stroke-width:0.09014685px;stroke-linecap:butt;stroke-linejoin:miter;stroke-opacity:1" />
      <path
         id="path6731"
         d="m 5.8208333,128.98958 0.9807565,-7.84668 1.2020561,7.84668 z"
         style="display:inline;fill:#0f3f07;fill-opacity:1;stroke:none;stroke-width:0.09786525px;stroke-linecap:butt;stroke-linejoin:miter;stroke-opacity:1" />
      <path
         id="path6733"
         d="m 0,128.98958 0.73804478,-8.27427 1.90778852,8.27427 z"
         style="display:inline;fill:#0f3f07;fill-opacity:1;stroke:none;stroke-width:0.09014685px;stroke-linecap:butt;stroke-linejoin:miter;stroke-opacity:1" />
      <path
         id="path6735"
         d="M 3.7924342,128.98958 3.6086146,121.01098 6.35,128.98958 Z"
         style="display:inline;fill:#0f3f07;fill-opacity:1;stroke:none;stroke-width:0.09342464px;stroke-linecap:butt;stroke-linejoin:miter;stroke-opacity:1" />
      <path
         id="path6737"
         d="m 1.3229167,128.98958 1.586931,-8.0352 1.0589023,8.0352 z"
         style="display:inline;fill:#0f3f07;fill-opacity:1;stroke:none;stroke-width:0.09014685px;stroke-linecap:butt;stroke-linejoin:miter;stroke-opacity:1" />
      <path
         id="path6739"
         d="m 12.969234,120.64081 -0.798401,8.35608 c 0.591041,0 0.968786,-0.005 1.322916,-0.008 v -5.97586 z"
         style="display:inline;fill:#0f3f07;fill-opacity:1;stroke:none;stroke-width:0.09014685px;stroke-linecap:butt;stroke-linejoin:miter;stroke-opacity:1" />
      <path
         id="path6741"
         d="m -0.01181176,123.01048 v 5.97586 c 0.438513,-0.004 0.8232134,-0.005 1.32291656,0.008 z"
         style="display:inline;fill:#0f3f07;fill-opacity:1;stroke:none;stroke-width:0.09014685px;stroke-linecap:butt;stroke-linejoin:miter;stroke-opacity:1" />
    </g>
  </g>
</svg>
