<?xml version="1.0" encoding="UTF-8" standalone="no"?>
<svg
   xmlns:dc="http://purl.org/dc/elements/1.1/"
   xmlns:cc="http://creativecommons.org/ns#"
   xmlns:rdf="http://www.w3.org/1999/02/22-rdf-syntax-ns#"
   xmlns:svg="http://www.w3.org/2000/svg"
   xmlns="http://www.w3.org/2000/svg"
   id="svg13706"
   version="1.1"
   viewBox="0 0 50.441658 27.857803"
   height="27.857803mm"
   width="50.441658mm">
  <defs
     id="defs13700">
    <path
       id="path877"
       d="m 57.127978,140.91503 c 0,0 13.856854,9.02457 44.062642,5.56285 0,0 10.33404,0.70576 14.3858,0.1862 4.64951,-0.59622 3.13575,1.54665 11.0517,-0.13917 22.34012,-4.75768 27.28116,6.28291 26.67227,5.91757"
       style="fill:none;stroke:#000000;stroke-width:0.118443px;stroke-linecap:butt;stroke-linejoin:miter;stroke-opacity:1" />
    <path
       id="path861"
       d="m 48.8887,170.28496 c 0,0 2.189323,-7.61929 27.705294,-5.03192 25.515966,2.58738 28.205866,11.23802 28.205866,11.23802"
       style="fill:none;stroke:#000000;stroke-width:0.15157808px;stroke-linecap:butt;stroke-linejoin:miter;stroke-opacity:1" />
  </defs>
  <metadata
     id="metadata13703">
    <rdf:RDF>
      <cc:Work
         rdf:about="">
        <dc:format>image/svg+xml</dc:format>
        <dc:type
           rdf:resource="http://purl.org/dc/dcmitype/StillImage" />
        <dc:title></dc:title>
      </cc:Work>
    </rdf:RDF>
  </metadata>
  <g
     transform="translate(-0.80482467,-3.3196863)"
     id="layer1">
    <path
       id="path815"
       d="m 9.2248748,24.215453 c 0,0 1.2360152,-11.75324 8.8777372,-15.5092678 7.641723,-3.756032 22.15372,-4.594379 25.836053,-4.294811 3.87233,0.315025 7.063425,-0.824637 7.063425,-0.824637 0,0 1.487427,9.2362378 -16.628047,17.8971828 -18.115481,8.66094 -25.1491682,2.731533 -25.1491682,2.731533 z"
       style="display:inline;fill:#db3a3a;fill-opacity:1;stroke:#000000;stroke-width:0.11244108px;stroke-linecap:butt;stroke-linejoin:miter;stroke-opacity:1" />
    <path
       id="path849"
       d="M 1.03512,30.89819 9.3281697,24.060181 C 13.435976,20.673103 20.242389,15.885843 32.329097,12.531405 44.035841,9.9619262 51.00209,3.5867372 51.00209,3.5867372"
       style="display:inline;fill:none;fill-opacity:1;stroke:#bbbbbb;stroke-width:0.72399998;stroke-linecap:butt;stroke-linejoin:miter;stroke-miterlimit:4;stroke-dasharray:none;stroke-opacity:1" />
    <path
       d="m 15.489027,14.084918 q -0.193459,0.02654 -0.440752,-0.177189 -0.238323,-0.195326 -0.297017,-0.396448 -0.01327,-0.05178 0.03775,-0.178135 0.008,-0.02056 0.02991,-0.06187 0.01907,-0.03832 0.03009,-0.05608 0.0243,-0.05589 0.06056,-0.100562 0.03589,-0.05626 0.09589,-0.0843 0.05425,-0.02775 0.118132,-0.02411 0.128038,0.01327 0.222058,0.140745 0.03645,0.05103 0.135893,0.256634 0.02561,0.07458 0.04561,0.155142 0.04692,0.195701 0.03757,0.355515 -0.01215,0.162805 -0.0757,0.170656 z m 1.493295,0.978494 q -0.774217,-0.444853 -0.601891,-1.305984 0.06243,-0.312337 0.06803,-0.767857 0.01513,-0.78935 -0.224315,-1.109349 -0.03963,-0.05963 -0.08785,-0.116075 -0.810297,-0.933827 -2.162804,1.102279 -0.0557,0.0714 -0.105606,0.14262 -0.155326,0.219629 -0.264109,0.443557 -0.02729,0.05309 -0.04598,0.102992 -0.108409,0.235516 -0.05607,0.509349 0.05589,0.29402 0.259259,0.30486 0.07851,0.0062 0.222992,-0.0101 0.173459,-0.0172 0.234207,-0.02206 0.281124,-0.0062 0.440005,0.154012 0.06542,0.05009 0.137199,0.117384 0.15832,0.142801 0.381503,0.408221 0.03888,0.03645 0.07795,0.07869 0.200564,0.193641 0.383932,0.393641 0.03608,0.03944 0.07533,0.08748 1.02731,1.008032 1.183768,1.632333 0.0314,0.07439 0.05701,0.148973 0.01907,0.05159 0.174022,0.179999 0.05626,0.03589 0.114767,0.0514 0.05869,0.02131 0.113646,0.01663 0.278132,-0.009 0.806168,-0.452349 0.519438,-0.440196 0.713265,-0.814782 0.193643,-0.380377 0.165228,-0.631781 -0.03159,-0.260001 -0.298138,-0.341307 -0.05851,-0.01551 -0.77608,-0.05326 -0.607108,-0.02971 -0.985431,-0.249522 z"
       style="font-style:normal;font-variant:normal;font-weight:normal;font-stretch:normal;font-size:31.73140144px;line-height:1.25;font-family:'Hippie Movement';-inkscape-font-specification:'Hippie Movement';letter-spacing:0px;word-spacing:0px;fill:#e7b9e1;fill-opacity:1;stroke:#000000;stroke-width:0.24011035;stroke-miterlimit:4;stroke-dasharray:none;stroke-opacity:1"
       id="path14301" />
    <path
       d="m 20.345407,11.737824 q 0.02923,-0.250002 0.14042,-0.415068 0.137226,-0.207799 0.357157,-0.237003 0.07206,-0.0092 0.129346,0.01943 0.06809,0.03283 0.06858,0.09527 0.0019,0.03498 -0.02625,0.08311 -0.08233,0.138997 -0.21186,0.23154 -0.398679,0.295469 -0.424466,0.369421 -0.04016,-0.04059 -0.03293,-0.146693 z m 1.781605,-0.01957 q -0.219031,-0.0607 -0.651626,0.504728 -0.525257,0.69105 -0.658077,0.776083 -0.275262,0.178752 -0.361473,0.03302 -0.06601,-0.109824 -0.03942,-0.48846 0.0086,-0.133566 0.215118,-0.295623 0.06313,-0.05001 0.205561,-0.143747 0.154171,-0.10781 0.224802,-0.161125 0.59133,-0.438036 0.460116,-0.96237 -0.06232,-0.254655 -0.32129,-0.39632 -0.312504,-0.171919 -0.771357,-0.06491 -0.533021,0.121595 -0.813523,0.656202 -0.308648,0.582743 -0.221622,1.506843 0.0184,0.21571 0.318254,0.961554 0.192223,0.479706 0.540512,0.886576 0.474873,0.552818 0.987788,0.6101 0.527468,0.05986 1.269435,-0.596236 0.686319,-0.609435 0.716914,-0.958495 0.02662,-0.307041 -0.393169,-1.040626 -0.42637,-0.748604 -0.70691,-0.827116 z"
       style="font-style:normal;font-variant:normal;font-weight:normal;font-stretch:normal;font-size:31.73140144px;line-height:1.25;font-family:'Hippie Movement';-inkscape-font-specification:'Hippie Movement';letter-spacing:0px;word-spacing:0px;fill:#e7b9e1;fill-opacity:1;stroke:#000000;stroke-width:0.24011035;stroke-miterlimit:4;stroke-dasharray:none;stroke-opacity:1"
       id="path14303" />
    <path
       d="m 25.141878,12.045526 q 0.04006,0.23979 -0.110828,0.434037 -0.156633,0.204318 -0.303799,0.02356 -0.171632,-0.208069 -0.03301,-0.462711 0.132878,-0.244572 0.376993,-0.268814 0.02768,-0.0076 0.06119,0.115018 0.0036,0.02876 0.0047,0.07946 0.0022,0.05465 0.0047,0.07946 z M 24.979654,9.0427292 q -0.263234,-0.07678 -0.604754,-0.0047 -0.08016,0.01767 -0.158172,0.04324 -0.412299,0.155218 -0.40439,0.153057 -0.216376,0.110153 -0.224168,0.299279 -0.0015,-0.02085 -0.01212,0.173307 0.03671,0.6316928 0.428727,0.8220068 0.06188,0.05533 0.165714,-0.0623 0.0086,-0.01511 0.183175,-0.309318 0.10739,-0.1823558 0.241466,-0.2360108 0.07801,-0.02558 0.163577,-0.02347 0.06867,0.0025 0.128018,0.033 0.134874,0.07362 0.178147,0.2785348 0.04506,0.195921 -0.0116,0.423907 -0.01542,0.06796 -0.21601,0.127044 -0.04746,0.01296 -0.130497,0.03566 -0.698517,0.118725 -0.998811,0.574811 -0.04418,0.07158 -0.07937,0.144946 -0.259241,0.55961 -0.06832,1.14914 0.03206,0.101731 0.06592,0.194472 0.420963,1.057872 1.37759,0.87283 0.553631,-0.104611 1.266339,-0.528956 0.08733,-0.05364 0.154899,-0.101847 0.17359,-0.111207 0.239275,-0.290659 0.07143,-0.189523 -0.01389,-0.361691 -0.1429,-0.258421 -0.481329,-0.998869 -0.03456,-0.0798 -0.06051,-0.174701 -0.02882,-0.08987 -0.04865,-0.177942 -0.0245,-0.07405 -0.03929,-0.159254 -0.0328,-0.135527 -0.0635,-0.356625 -0.04262,-0.311338 -0.04877,-0.364905 -0.07001,-0.4270438 -0.245626,-0.6807718 -0.05218,-0.066482 -0.112259,-0.130802 -0.266593,-0.275604 -0.570819,-0.362423 z"
       style="font-style:normal;font-variant:normal;font-weight:normal;font-stretch:normal;font-size:31.73140144px;line-height:1.25;font-family:'Hippie Movement';-inkscape-font-specification:'Hippie Movement';letter-spacing:0px;word-spacing:0px;fill:#e7b9e1;fill-opacity:1;stroke:#000000;stroke-width:0.24011035;stroke-miterlimit:4;stroke-dasharray:none;stroke-opacity:1"
       id="path14305" />
    <path
       d="m 29.820483,9.5035802 q -0.004,0.0042 -0.476937,0.302065 -0.05262,0.0299 -0.101424,0.04743 -0.118105,0.0355 -0.213301,-0.0033 -0.0993,-0.03873 -0.159401,-0.156265 -0.02562,-0.04452 -0.04343,-0.105617 -0.03357,-0.212457 -0.02863,-0.175666 -0.01893,-0.110278 -0.02863,-0.175664 -0.01045,-0.09817 -0.01643,-0.180045 -0.04344,-0.642781 0.303982,-0.69175 0.09808,-0.01455 0.181926,0.06554 0.07555,0.07618 0.102766,0.190369 0.0043,0.01226 0.0178,0.0611 0.01314,0.0366 0.02191,0.061 0.07036,0.207515 0.25069,0.20338 0.05738,-0.0013 0.110089,-0.02713 0.05281,-0.02172 0.09686,-0.06783 0.449677,-0.596674 0.273533,-1.125703 -0.04427,-0.142502 -0.264735,-0.100545 -0.105903,0.03113 -0.406548,0.152837 -0.239639,0.09981 -0.403387,0.111758 -0.09788,0.02276 -0.183392,0.04931 -0.769793,0.226771 -0.928114,0.833172 -0.03892,0.0911 -0.06545,0.186022 -0.08387,0.276655 -0.09303,0.592603 -0.01042,0.08225 -0.02074,0.168594 -0.02593,0.2999308 -0.0091,0.6767898 0.03462,0.794703 0.274927,1.26075 0.347841,0.685009 0.981427,0.7771 0.353772,0.0493 0.70219,-0.135009 0.332308,-0.171632 0.542378,-0.488089 0.368652,-0.553815 0.324522,-1.405706 -0.02197,-0.4218458 -0.170673,-0.6480628 -0.06372,-0.09696 -0.159588,-0.164463 -0.04583,-0.03175 -0.09977,-0.05922 -0.169253,-0.04943 -0.206043,-0.04448 -0.05328,0.0012 -0.106275,0.01474 z"
       style="font-style:normal;font-variant:normal;font-weight:normal;font-stretch:normal;font-size:31.73140144px;line-height:1.25;font-family:'Hippie Movement';-inkscape-font-specification:'Hippie Movement';letter-spacing:0px;word-spacing:0px;fill:#e7b9e1;fill-opacity:1;stroke:#000000;stroke-width:0.24011035;stroke-miterlimit:4;stroke-dasharray:none;stroke-opacity:1"
       id="path14307" />
    <path
       d="m 32.987761,7.8850612 q 0.02294,-0.250657 0.129951,-0.418463 0.131964,-0.21118 0.351092,-0.245898 0.0718,-0.01099 0.129793,0.01617 0.06889,0.03111 0.07095,0.09352 0.0028,0.03492 -0.02416,0.08374 -0.07881,0.141021 -0.205978,0.236787 -0.391131,0.305389 -0.415054,0.379965 -0.04116,-0.03957 -0.0366,-0.145819 z m 1.780552,-0.06431 q -0.220487,-0.05518 -0.638745,0.520934 -0.507736,0.704022 -0.638379,0.792363 -0.270685,0.18561 -0.360529,0.04209 -0.06875,-0.108132 -0.05167,-0.487315 0.0053,-0.133741 0.207625,-0.300933 0.06185,-0.05159 0.201886,-0.148864 0.151415,-0.111648 0.220684,-0.166721 0.580142,-0.45275 0.435802,-0.973622 -0.06869,-0.253011 -0.331141,-0.388125 -0.316724,-0.164017 -0.772745,-0.04552 -0.529799,0.134941 -0.796786,0.676426 -0.293916,0.590309 -0.183708,1.511933 0.02382,0.21518 0.342302,0.953258 0.204212,0.4747268 0.562607,0.8727218 0.488608,0.540717 1.002799,0.585099 0.528806,0.04659 1.254023,-0.628006 0.670797,-0.626478 0.692616,-0.9761958 0.0189,-0.307613 -0.41918,-1.030424 -0.445037,-0.73766 -0.727459,-0.8091 z"
       style="font-style:normal;font-variant:normal;font-weight:normal;font-stretch:normal;font-size:31.73140144px;line-height:1.25;font-family:'Hippie Movement';-inkscape-font-specification:'Hippie Movement';letter-spacing:0px;word-spacing:0px;fill:#e7b9e1;fill-opacity:1;stroke:#000000;stroke-width:0.24011035;stroke-miterlimit:4;stroke-dasharray:none;stroke-opacity:1"
       id="path14309" />
    <path
       d="m 22.919788,22.237689 v 0 q -0.0085,-3.11e-4 -0.01002,-0.0038 -0.08442,-0.04026 -0.180048,-0.05058 -0.29933,-0.10391 -0.539123,-0.267912 -0.08222,-0.05363 -0.159134,-0.1138 -0.05819,-0.0645 -0.05167,-0.05924 -0.108348,-0.120313 -0.135745,-0.153348 -0.04669,-0.05733 -0.186461,-0.283292 -0.0093,-0.02055 -0.02209,-0.03958 -0.336371,-0.73199 -0.461315,-1.262298 -0.08794,-0.39414 -0.05167,-0.642104 0.01064,-0.05856 0.05966,-0.287518 0.04027,-0.175384 0.04627,-0.289701 0.01359,-0.361667 -0.211857,-0.548719 -0.163483,-0.132495 -0.441738,-0.03513 v 0 q -0.01679,-5.79e-4 -0.03023,-0.0028 -0.0997,0.0081 -0.986912,0.485135 -0.92866,0.504178 -1.059916,0.6795 -0.214783,0.291817 -0.114321,0.531417 0.06036,0.142095 0.211105,0.210096 0.07004,0.0633 0.407678,0.224222 0.163523,0.624414 0.200309,1.707342 -0.0259,-0.02962 -0.22572,-0.269613 -0.0081,-0.0087 -0.395106,-0.424221 -0.108295,-0.21128 -0.176114,-0.378923 -0.204387,-0.523187 -0.19502,-1.130992 -0.0017,-0.0036 -0.0017,-0.0036 -0.0017,-0.0036 0.002,-0.0049 -0.04043,-0.134613 -0.08617,-0.217192 -0.133826,-0.249306 -0.39463,-0.168141 -0.02024,9.18e-4 -0.03366,-0.0013 -0.13179,0.0102 -0.308499,0.140022 -0.07418,0.04606 -0.167649,0.113326 -0.178292,0.126368 -0.71345,0.604917 -0.597819,0.531779 -0.637115,0.590942 -0.188982,0.275883 -0.04576,0.500301 0.08092,0.132763 0.255666,0.189866 0.197131,0.133763 0.419833,0.214571 0.296839,0.663118 0.46136,2.291619 -0.0016,0.08751 -0.01162,0.174762 -0.03198,0.35763 -0.120646,0.69966 -0.02342,0.085 -0.05178,0.16821 -0.01815,0.0784 -0.0362,0.15702 -0.01222,0.0551 0.02853,0.22681 0.02145,0.0564 0.05042,0.0929 0.03393,0.0384 0.07192,0.0583 0.284352,0.14378 1.138792,-0.22337 0.08217,-0.0376 0.164684,-0.0743 0.07207,-0.0324 0.147726,-0.0753 0.603951,-0.33611 0.644817,-0.7104 0.02631,-0.25171 -0.136518,-0.4465 -0.09683,-0.113144 -0.351571,-0.282769 -0.01273,-0.01898 -0.134791,-0.178581 -0.0143,-0.02241 -0.03017,-0.04829 -0.02088,-0.02774 -0.02552,-0.03802 -0.0221,-0.03958 -0.07562,-0.139302 0,0 -0.01895,-0.03269 l -0.358971,-0.982115 q -0.02204,-0.13054 -0.03879,-0.267632 -0.0017,-0.0036 -0.0068,-0.04235 0.02276,0.02273 0.05198,0.05078 0.280847,0.281787 0.48508,0.540474 0.372953,0.475609 0.705462,0.862103 0.0218,0.04802 0.03204,0.08881 -0.002,0.0049 -0.007,0.01169 -0.03915,0.0506 -0.03807,0.116496 -0.148542,0.456016 0.140427,0.701046 0.0093,0.0206 0.02239,0.0311 0.03054,0.0399 0.06844,0.0598 0.10745,0.0546 0.368544,0.0105 0.0201,-9.2e-4 0.03552,-0.004 0.04736,-0.005 0.101909,-0.0214 0.304083,-0.0678 0.632826,-0.20875 0.08217,-0.0376 0.164684,-0.0743 0.07555,-0.0339 0.147726,-0.0753 0.04832,-0.0301 0.08817,-0.0608 0.125574,-0.06942 0.213519,-0.167148 0.02143,-0.0259 0.03931,-0.05914 0.05229,-0.04866 0.08325,-0.108038 0.146601,-0.269063 -0.131752,-0.618168 -0.139779,-0.180457 -0.31887,-0.256253 -0.0131,-0.01058 -0.02276,-0.02273 -0.0093,-0.02055 -0.100514,-0.194142 l -0.02331,-0.05139 q -0.01402,-0.03086 -0.01866,-0.04113 -0.01524,-0.04268 -0.05163,-0.150197 0.0034,0.0072 -0.01216,-0.03586 l -0.194425,-1.056449 q -0.0049,-0.138329 -0.0045,-0.283194 0.0051,-0.08908 0.01039,-0.186602 0.0023,-0.01332 0.0038,-0.05545 l 0.0037,-0.0013 q 0.09893,0.236201 0.188225,0.460245 0.04759,0.123078 0.16051,0.435617 0.102342,0.280131 0.165492,0.437489 0.112625,0.275463 0.138096,0.404451 0.0097,0.05767 0.01019,0.177274 0.004,0.118053 0.01361,0.175715 0.0074,0.02553 0.01645,0.0545 0.306141,0.191771 0.443526,0.749498 0.08911,0.0051 0.210903,-0.0089 0.0186,-0.0046 0.03552,-0.0037 0.04238,-0.0068 0.09348,-0.02175 0.297225,-0.06468 0.626002,-0.205551 0.08383,-0.0339 0.164684,-0.07428 0.07207,-0.03244 0.147726,-0.07528 0.135851,-0.07409 0.203879,-0.179288 0.28827,-0.230093 0.301845,-0.500787 0.01761,-0.289099 -0.283255,-0.441918 z"
       style="font-style:normal;font-variant:normal;font-weight:normal;font-stretch:normal;font-size:8.39559937px;line-height:1.25;font-family:'Hippie Movement';-inkscape-font-specification:'Hippie Movement';letter-spacing:0px;word-spacing:0px;fill:#dface3;fill-opacity:1;stroke:#000000;stroke-width:0.25950709;stroke-miterlimit:4;stroke-dasharray:none;stroke-opacity:1"
       id="path14279" />
    <path
       d="m 24.588685,20.413104 q 0.06495,0.234272 -0.06479,0.443249 -0.134392,0.219575 -0.299654,0.05527 -0.19248,-0.188948 -0.08129,-0.456707 0.106532,-0.257143 0.346779,-0.306798 0.02693,-0.01018 0.07291,0.107967 0.0066,0.02826 0.01304,0.07855 0.0079,0.05414 0.01304,0.07855 z m -0.475849,-2.969292 q -0.269824,-0.04881 -0.601916,0.05871 -0.07789,0.02595 -0.152758,0.05959 -0.393758,0.197571 -0.386113,0.1946 -0.203686,0.13216 -0.191592,0.321108 -0.0037,-0.0206 0.0061,0.17362 0.102671,0.624379 0.512471,0.772584 0.06732,0.04854 0.158268,-0.07932 0.0067,-0.01628 0.149768,-0.326809 0.0877,-0.192596 0.215435,-0.25998 0.07492,-0.03357 0.160232,-0.04046 0.06857,-0.0047 0.130781,0.01942 0.141842,0.05909 0.206346,0.258343 0.06534,0.190119 0.03287,0.422791 -0.0083,0.06921 -0.201249,0.149327 -0.04581,0.01787 -0.126004,0.04919 -0.682242,0.191229 -0.933093,0.67629 -0.03642,0.07583 -0.06375,0.152476 -0.199201,0.583682 0.05242,1.14997 0.04254,0.09782 0.08593,0.186505 0.529447,1.007956 1.461429,0.723734 0.539634,-0.161996 1.203973,-0.658681 0.08145,-0.0622 0.143496,-0.117356 0.160785,-0.129049 0.207511,-0.314126 0.05119,-0.195963 -0.05169,-0.358245 -0.169212,-0.242014 -0.583312,-0.942961 -0.04271,-0.0757 -0.07848,-0.1674 -0.03804,-0.08631 -0.06702,-0.171866 -0.03208,-0.07103 -0.05576,-0.154255 -0.04681,-0.131342 -0.100505,-0.348013 -0.075,-0.305163 -0.08672,-0.357791 -0.114364,-0.417403 -0.315587,-0.65134 -0.05884,-0.06063 -0.125338,-0.118328 -0.293991,-0.24617 -0.605641,-0.300643 z"
       style="font-style:normal;font-variant:normal;font-weight:normal;font-stretch:normal;font-size:8.39559937px;line-height:1.25;font-family:'Hippie Movement';-inkscape-font-specification:'Hippie Movement';letter-spacing:0px;word-spacing:0px;fill:#dface3;fill-opacity:1;stroke:#000000;stroke-width:0.28260779;stroke-miterlimit:4;stroke-dasharray:none;stroke-opacity:1"
       id="path14281" />
    <path
       d="m 28.237982,18.135894 q -0.0032,0.0048 -0.407296,0.390924 -0.04561,0.0398 -0.08997,0.06665 -0.108549,0.05856 -0.20968,0.03923 -0.105012,-0.01818 -0.187304,-0.121425 -0.03397,-0.03853 -0.06357,-0.09486 -0.07517,-0.20153 -0.06301,-0.166458 -0.04046,-0.104326 -0.06301,-0.166457 -0.02978,-0.09416 -0.05192,-0.173174 -0.170462,-0.621288 0.160272,-0.738396 0.09325,-0.03373 0.191322,0.02802 0.08919,0.0596 0.138603,0.166117 0.0067,0.01109 0.0296,0.05637 0.02022,0.03327 0.03356,0.0554 0.110243,0.189358 0.286142,0.14943 0.05595,-0.01273 0.102495,-0.04848 0.0473,-0.03209 0.08143,-0.08573 0.321966,-0.674224 0.04409,-1.15762 -0.07176,-0.130835 -0.279449,-0.04586 -0.09773,0.05129 -0.368019,0.230648 -0.214982,0.145509 -0.373061,0.189834 -0.09141,0.04177 -0.169807,0.08504 -0.709266,0.375438 -0.743788,1.00117 -0.02,0.09704 -0.02712,0.195328 -0.02715,0.287809 0.02674,0.599263 0.0062,0.08269 0.01322,0.169348 0.03426,0.2991 0.125754,0.665071 0.192044,0.771922 0.520277,1.180844 0.477182,0.602106 1.116422,0.566291 0.356508,-0.02208 0.661286,-0.272029 0.291501,-0.234346 0.434422,-0.586243 0.25109,-0.616089 0.03834,-1.442172 -0.105469,-0.409038 -0.296207,-0.601148 -0.08174,-0.08233 -0.189119,-0.129419 -0.05121,-0.02195 -0.109536,-0.03815 -0.175709,-0.01478 -0.210757,-0.0026 -0.05199,0.01176 -0.101219,0.03559 z"
       style="font-style:normal;font-variant:normal;font-weight:normal;font-stretch:normal;font-size:8.39559937px;line-height:1.25;font-family:'Hippie Movement';-inkscape-font-specification:'Hippie Movement';letter-spacing:0px;word-spacing:0px;fill:#dface3;fill-opacity:1;stroke:#000000;stroke-width:0.28260779;stroke-miterlimit:4;stroke-dasharray:none;stroke-opacity:1"
       id="path14283" />
    <path
       d="m 34.779101,18.925109 q 0.105822,-0.342165 -0.158206,-0.487673 -0.491371,-0.267485 -0.641824,-0.462935 -0.04582,-0.05507 -0.08372,-0.112326 -0.03905,-0.06122 -0.06635,-0.125892 -0.02895,-0.05568 -0.0828,-0.168079 -0.114607,-0.2485 -0.182566,-0.365392 -0.03397,-0.0584 -0.06569,-0.109018 -0.592664,-1.074629 -0.993264,-1.308641 -0.08569,-0.03065 -0.175848,-0.04726 -0.493561,-0.08335 -0.914502,0.320162 -0.07078,0.05037 -0.131904,0.119302 -0.0488,0.05256 -0.120941,0.201445 -0.06934,0.143821 -0.126024,0.198636 -0.05949,0.05988 -0.144252,0.07639 -0.216367,-0.03981 -0.350233,-0.325409 -0.03807,-0.08718 -0.09376,-0.250255 -0.05803,-0.170991 -0.08299,-0.227772 -0.01935,-0.06691 -0.02974,-0.132229 -0.0317,-0.212747 0.01101,-0.404344 0.01782,-0.05638 0.03961,-0.113843 0.0229,-0.05357 0.04861,-0.112207 0.0229,-0.05357 0.05253,-0.113381 0.04136,-0.09302 0.11017,-0.223919 0.06218,-0.09482 0.0037,-0.223007 -0.05106,-0.117518 -0.166827,-0.20778 -0.05815,-0.03869 -0.125188,-0.04915 -0.09637,-0.02333 -0.28654,0.02741 l -0.275142,0.06679 q -0.182281,0.04848 -0.563204,0.295332 -0.05336,0.0368 -0.09999,0.06737 -0.188295,0.10143 -0.233696,0.327956 -0.0482,0.231601 0.103812,0.388193 0.04974,0.05389 0.09948,0.107774 0.04974,0.05389 0.09274,0.113989 0.644283,0.854843 1.096989,2.994216 0.0026,0.0974 0.004,0.190876 1.81e-4,0.384031 -0.0701,0.745782 -0.02051,0.09132 -0.04612,0.179791 -0.01098,0.08001 -0.02872,0.166208 -0.0099,0.05412 0.05998,0.251499 0.03517,0.06237 0.07471,0.110681 0.04237,0.04321 0.09316,0.07119 0.365577,0.201474 1.372619,-0.06437 0.09847,-0.02845 0.19297,-0.05581 0.08662,-0.02511 0.170997,-0.05799 0.705208,-0.276587 0.713398,-0.675901 0.0047,-0.278755 -0.223073,-0.520104 -0.128281,-0.133584 -0.468051,-0.363861 -0.0858,-0.06053 -0.129835,-0.09472 -0.244541,-0.210895 -0.405248,-0.441781 -0.06393,-0.08819 -0.105895,-0.174202 -0.05894,-0.115242 -0.08465,-0.218759 -0.01705,-0.05904 -0.0201,-0.113676 -0.05004,-0.305594 0.171423,-0.425161 0.129217,-0.08436 0.288904,0.01027 0.01409,0.0044 0.259154,0.202395 0.04126,0.03931 0.08476,0.08643 -0.01757,-0.01629 0.216553,0.261666 0.04185,0.05615 0.07471,0.110673 0.03398,0.0584 0.06012,0.119172 0.0425,0.07307 0.08217,0.151194 0.04366,0.07695 0.07819,0.152348 0.03581,0.0793 0.07149,0.158546 0.03517,0.06237 0.06299,0.143942 0.0228,0.07877 0.06402,0.280206 0.03947,0.18063 0.0719,0.277931 0.100182,0.316683 0.346598,0.416079 0.07556,0.02513 0.157211,0.02708 0.07597,-0.01769 0.18456,-0.0406 0.02073,-0.002 0.190762,-0.0339 0.07316,-0.01262 0.149095,-0.0304 0.569111,-0.215944 0.791224,-0.480736 0.01794,-0.02651 0.03079,-0.05583 z"
       style="font-style:normal;font-variant:normal;font-weight:normal;font-stretch:normal;font-size:8.39559937px;line-height:1.25;font-family:'Hippie Movement';-inkscape-font-specification:'Hippie Movement';letter-spacing:0px;word-spacing:0px;fill:#dface3;fill-opacity:1;stroke:#000000;stroke-width:0.28260779;stroke-miterlimit:4;stroke-dasharray:none;stroke-opacity:1"
       id="path14285" />
    <path
       d="m 35.424187,18.439385 q 0.166643,0.180956 0.587431,0.130926 0.494544,-0.06251 0.977231,-0.259711 0.26585,-0.10926 0.357535,-0.258092 0.124798,-0.203627 0.02957,-0.491677 -0.110106,-0.343628 -0.547243,-0.717362 -0.523521,-0.447964 -0.655438,-0.653928 -0.179414,-0.280639 -0.275746,-0.785186 -0.02468,-0.121591 -0.07088,-0.430923 -0.03936,-0.277002 -0.07475,-0.429584 -0.03152,-0.153933 -0.101975,-0.194644 -0.07955,-0.04192 -0.252282,0.04814 -0.818494,0.430345 -0.970067,0.907847 -0.02746,0.09623 -0.01646,0.153166 0.0244,0.09568 0.149237,0.130583 0.03381,0.01 0.111738,0.0221 0.07406,0.01346 0.113087,0.02599 0.247152,0.07506 0.368975,0.540425 0.190838,0.727777 0.145046,1.511324 -0.03244,0.583756 0.124974,0.750549 z M 35.169816,13.13592 q 0.11337,0.05192 0.130726,0.215057 0.009,0.113987 -0.04229,0.279198 -0.230376,0.738917 -0.885212,1.078044 -0.195858,0.09835 -0.324559,0.07746 -0.202616,-0.03405 -0.187931,-0.229974 0.07223,-0.267866 0.18737,-0.524533 0.07084,-0.158947 0.143453,-0.275138 0.277773,-0.438669 0.733626,-0.600569 0.153624,-0.05748 0.244804,-0.01957 z"
       style="font-style:normal;font-variant:normal;font-weight:normal;font-stretch:normal;font-size:8.39559937px;line-height:1.25;font-family:'Hippie Movement';-inkscape-font-specification:'Hippie Movement';letter-spacing:0px;word-spacing:0px;fill:#dface3;fill-opacity:1;stroke:#000000;stroke-width:0.28260779;stroke-miterlimit:4;stroke-dasharray:none;stroke-opacity:1"
       id="path14287" />
    <path
       d="m 41.806808,14.531331 q -0.40471,-0.262288 -0.516403,-0.464891 -0.03198,-0.0579 -0.06001,-0.117301 -0.0258,-0.06477 -0.04402,-0.132498 -0.01894,-0.0586 -0.0531,-0.177427 -0.07357,-0.261945 -0.118354,-0.385314 -0.0205,-0.0624 -0.04555,-0.114236 -0.397719,-1.130091 -0.72786,-1.360328 -0.07307,-0.02828 -0.15297,-0.04051 -0.4308,-0.06211 -0.85608,0.398699 -0.122683,0.101843 -0.707831,1.345898 -0.03179,-0.168268 -0.05294,-0.331951 -0.006,-0.08144 -0.01049,-0.159118 -0.0022,-0.083 -0.0044,-0.16595 -0.0013,-0.246643 -0.195282,-0.34581 -0.188686,-0.09687 -0.386737,0.02624 -0.05729,0.02241 -0.115002,0.0547 -0.437943,0.218783 -0.599467,0.367084 -0.07619,0.07455 -0.236222,0.226601 -0.167627,0.155133 -0.221035,0.264684 -0.03738,0.07227 -0.04964,0.152197 -0.01997,0.171264 0.02101,0.296151 0.04934,0.134787 0.159719,0.134906 0.137021,0.01158 0.23139,0.02688 0.05783,0.01223 0.110358,0.02219 0.06167,0.01076 0.110357,0.02219 0.05936,0.01604 0.105781,0.03284 0.162824,0.07629 0.286736,0.243132 0.03799,0.051 0.07373,0.107408 0.02196,0.06624 0.09269,0.21018 0.0083,0.120283 0.02323,0.357048 -0.0085,0.100479 -0.02077,0.202467 -0.0461,0.415598 -0.156893,0.812851 -0.02677,0.09889 -0.05882,0.195575 -0.02218,0.08824 -0.04662,0.181891 -0.01455,0.06313 0.02332,0.268747 0.02197,0.06624 0.05469,0.115001 0.03119,0.04491 0.07299,0.07237 0.303534,0.196718 1.23413,-0.147921 0.09297,-0.0325 0.178981,-0.07134 0.07995,-0.03192 0.164352,-0.07476 0.659598,-0.338045 0.716365,-0.77116 0.03838,-0.302167 -0.13569,-0.550515 -0.09882,-0.137122 -0.371869,-0.368069 -0.07226,-0.05947 -0.107997,-0.09374 -0.191616,-0.214876 -0.309356,-0.454787 -0.04177,-0.09368 -0.0729,-0.182776 -0.03565,-0.122593 -0.04848,-0.23223 -0.0037,-0.06472 -0.0044,-0.121801 -0.0035,-0.329613 0.209068,-0.471754 0.124204,-0.09803 0.25807,-0.0058 0.0067,0.0057 0.205327,0.204989 0.02963,0.04111 0.06233,0.08989 -0.0114,-0.01752 0.164902,0.269645 0.0281,0.05939 0.05092,0.116512 0.0205,0.0624 0.04098,0.124886 0.02811,0.08147 0.05465,0.159157 0.0281,0.08147 0.05084,0.160664 0.02429,0.08304 0.04474,0.167527 0.0258,0.06477 0.03866,0.152286 0.01131,0.08371 0.02253,0.299948 0.01274,0.19794 0.03014,0.296923 0.05446,0.335765 0.2599,0.430366 0.0662,0.02211 0.136232,0.02067 0.06988,-0.02389 0.168298,-0.05386 0.02043,-0.004 0.175132,-0.04778 0.06926,-0.01444 0.137842,-0.0417 0.533887,-0.265922 0.768677,-0.562523 0.01753,-0.0335 0.03128,-0.06544 0.138172,-0.372862 -0.0832,-0.518493 z"
       style="font-style:normal;font-variant:normal;font-weight:normal;font-stretch:normal;font-size:8.39559937px;line-height:1.25;font-family:'Hippie Movement';-inkscape-font-specification:'Hippie Movement';letter-spacing:0px;word-spacing:0px;fill:#dface3;fill-opacity:1;stroke:#000000;stroke-width:0.28260779;stroke-miterlimit:4;stroke-dasharray:none;stroke-opacity:1"
       id="path14289" />
    <path
       d="m 42.78129,10.853634 q 0.02308,-0.221573 0.119637,-0.3689 0.119126,-0.185427 0.313435,-0.213729 0.06368,-0.0089 0.114698,0.01577 0.06062,0.02829 0.06176,0.08355 0.002,0.0309 -0.02229,0.07387 -0.07133,0.123899 -0.184911,0.207272 -0.349526,0.26594 -0.371523,0.331674 -0.03601,-0.03552 -0.03077,-0.129455 z m 1.576483,-0.0372 q -0.19452,-0.05128 -0.571051,0.453944 -0.457135,0.617432 -0.573729,0.69417 -0.241622,0.161236 -0.319531,0.03326 -0.05964,-0.09646 -0.04033,-0.431842 0.0061,-0.118296 0.187078,-0.264023 0.05532,-0.04496 0.18032,-0.129498 0.135231,-0.09714 0.197149,-0.145101 0.518433,-0.394256 0.396461,-0.856817 -0.05799,-0.2246728 -0.28876,-0.3471498 -0.278483,-0.148663 -0.683366,-0.04884 -0.470364,0.113553 -0.712639,0.5898058 -0.266647,0.519165 -0.179318,1.336008 0.01869,0.190702 0.292383,0.847416 0.175466,0.42239 0.488243,0.778581 0.426424,0.483936 0.880986,0.528904 0.467475,0.04709 1.116733,-0.541931 0.600583,-0.547005 0.623764,-0.85626 0.02013,-0.272021 -0.359566,-0.916557 -0.385685,-0.657752 -0.634835,-0.724093 z"
       style="font-style:normal;font-variant:normal;font-weight:normal;font-stretch:normal;font-size:8.39559937px;line-height:1.25;font-family:'Hippie Movement';-inkscape-font-specification:'Hippie Movement';letter-spacing:0px;word-spacing:0px;fill:#dface3;fill-opacity:1;stroke:#000000;stroke-width:0.25012454;stroke-miterlimit:4;stroke-dasharray:none;stroke-opacity:1"
       id="path14291" />
  </g>
</svg>
