<?xml version="1.0" encoding="UTF-8" standalone="no"?>
<svg
   xmlns:dc="http://purl.org/dc/elements/1.1/"
   xmlns:cc="http://creativecommons.org/ns#"
   xmlns:rdf="http://www.w3.org/1999/02/22-rdf-syntax-ns#"
   xmlns:svg="http://www.w3.org/2000/svg"
   xmlns="http://www.w3.org/2000/svg"
   id="svg15116"
   version="1.1"
   viewBox="0 0 51.182109 14.050004"
   height="14.050004mm"
   width="51.18211mm">
  <defs
     id="defs15110" />
  <metadata
     id="metadata15113">
    <rdf:RDF>
      <cc:Work
         rdf:about="">
        <dc:format>image/svg+xml</dc:format>
        <dc:type
           rdf:resource="http://purl.org/dc/dcmitype/StillImage" />
        <dc:title></dc:title>
      </cc:Work>
    </rdf:RDF>
  </metadata>
  <g
     transform="translate(-20.46904,-118.94565)"
     id="layer1">
    <g
       style="display:inline;fill:#4f4f4f;fill-opacity:1"
       id="g10866"
       transform="matrix(0.34119669,0,0,0.14338955,20.299745,-17.900995)">
      <g
         style="fill:#4f4f4f;fill-opacity:1"
         id="g10864">
        <path
           id="path10826"
           d="m 104.7944,978.86598 c 0,13.52888 -13.79395,24.49622 -30.80965,24.49622 -17.01571,0 -30.80966,-10.96734 -30.80966,-24.49622 0,-13.52887 13.79395,-24.4962 30.80966,-24.4962 17.0157,0 30.80965,10.96733 30.80965,24.4962 z"
           style="fill:#4f4f4f;fill-opacity:1;fill-rule:nonzero;stroke:none" />
        <path
           id="path10828"
           d="m 103.42412,979.70978 c 0,13.43025 -13.23431,24.31762 -29.55965,24.31762 -16.32535,0 -29.55966,-10.88737 -29.55966,-24.31762 0,-13.43026 13.23431,-24.31763 29.55966,-24.31763 16.32534,0 29.55965,10.88737 29.55965,24.31763 z"
           style="fill:#4f4f4f;fill-opacity:1;fill-rule:nonzero;stroke:none" />
        <path
           id="path10830"
           d="m 106.05711,1009.9282 c 0,12.2736 -11.19345,22.2233 -25.00127,22.2233 -13.80783,0 -25.00128,-9.9497 -25.00128,-22.2233 0,-12.27363 11.19345,-22.22337 25.00128,-22.22337 13.80782,0 25.00127,9.94974 25.00127,22.22337 z"
           style="fill:#4f4f4f;fill-opacity:1;fill-rule:nonzero;stroke:none" />
        <path
           id="path10832"
           d="m 125.75508,992.7556 c 0,12.2736 -11.19345,22.2234 -25.00127,22.2234 -13.80783,0 -25.00128,-9.9498 -25.00128,-22.2234 0,-12.27362 11.19345,-22.22336 25.00128,-22.22336 13.80782,0 25.00127,9.94974 25.00127,22.22336 z"
           style="fill:#4f4f4f;fill-opacity:1;fill-rule:nonzero;stroke:none" />
        <path
           id="path10834"
           d="m 70.19668,999.82666 c 0,12.27364 -11.19345,22.22334 -25.00127,22.22334 -13.80783,0 -25.00128,-9.9497 -25.00128,-22.22334 0,-12.27362 11.19345,-22.22336 25.00128,-22.22336 13.80782,0 25.00127,9.94974 25.00127,22.22336 z"
           style="fill:#4f4f4f;fill-opacity:1;fill-rule:nonzero;stroke:none" />
        <path
           id="path10836"
           d="m 72.61576,1000.9598 c 0,12.2736 -11.47328,22.2233 -25.62628,22.2233 -14.153,0 -25.62627,-9.9497 -25.62627,-22.2233 0,-12.27364 11.47327,-22.22338 25.62627,-22.22338 14.153,0 25.62628,9.94974 25.62628,22.22338 z"
           style="fill:#4f4f4f;fill-opacity:1;fill-rule:nonzero;stroke:none" />
        <path
           id="path10838"
           d="m 40.3972,1019.2721 c 0,9.9026 -8.93215,17.9302 -19.95051,17.9302 -11.01837,0 -19.95051,-8.0276 -19.95051,-17.9302 0,-9.9026 8.93214,-17.9302 19.95051,-17.9302 11.01836,0 19.95051,8.0276 19.95051,17.9302 z"
           style="fill:#4f4f4f;fill-opacity:1;fill-rule:nonzero;stroke:none" />
        <path
           id="path10840"
           d="m 40.95786,1019.699 c 0,9.3048 -8.77225,16.8479 -19.59337,16.8479 -10.82112,0 -19.59338,-7.5431 -19.59338,-16.8479 0,-9.3049 8.77226,-16.848 19.59338,-16.848 10.82112,0 19.59337,7.5431 19.59337,16.848 z"
           style="fill:#4f4f4f;fill-opacity:1;fill-rule:nonzero;stroke:none" />
        <path
           id="path10842"
           d="m 126.18719,994.88834 c 0,12.86536 -11.39333,23.29476 -25.44771,23.29476 -14.05438,0 -25.44771,-10.4294 -25.44771,-23.29476 0,-12.86535 11.39333,-23.29478 25.44771,-23.29478 14.05438,0 25.44771,10.42943 25.44771,23.29478 z"
           style="fill:#4f4f4f;fill-opacity:1;fill-rule:nonzero;stroke:none" />
        <path
           id="path10844"
           d="m 150.50382,1000.3317 c 0,12.2737 -11.19345,22.2234 -25.00127,22.2234 -13.80783,0 -25.00128,-9.9497 -25.00128,-22.2234 0,-12.27358 11.19345,-22.22332 25.00128,-22.22332 13.80782,0 25.00127,9.94974 25.00127,22.22332 z"
           style="fill:#4f4f4f;fill-opacity:1;fill-rule:nonzero;stroke:none" />
        <path
           id="path10846"
           d="m 149.75861,1000.2455 c 0,11.5833 -11.2734,20.9733 -25.17984,20.9733 -13.90645,0 -25.17985,-9.39 -25.17985,-20.9733 0,-11.58327 11.2734,-20.97337 25.17985,-20.97337 13.90644,0 25.17984,9.3901 25.17984,20.97337 z"
           style="fill:#4f4f4f;fill-opacity:1;fill-rule:nonzero;stroke:none" />
        <path
           id="path10848"
           d="m 41.91242,1033.6668 c 0,6.5552 -5.201,11.8693 -11.61676,11.8693 -6.41575,0 -11.61675,-5.3141 -11.61675,-11.8693 0,-6.5553 5.201,-11.8693 11.61675,-11.8693 6.41576,0 11.61676,5.314 11.61676,11.8693 z"
           style="fill:#4f4f4f;fill-opacity:1;fill-rule:nonzero;stroke:none" />
        <path
           id="path10850"
           d="m 42.26694,1032.9241 c 0,6.4566 -5.12105,11.6907 -11.43818,11.6907 -6.31714,0 -11.43819,-5.2341 -11.43819,-11.6907 0,-6.4566 5.12105,-11.6908 11.43819,-11.6908 6.31713,0 11.43818,5.2342 11.43818,11.6908 z"
           style="fill:#4f4f4f;fill-opacity:1;fill-rule:nonzero;stroke:none" />
        <path
           id="path10852"
           d="m 84.33882,1030.1312 c 0,12.2737 -11.19345,22.2234 -25.00127,22.2234 -13.80783,0 -25.00128,-9.9497 -25.00128,-22.2234 0,-12.2736 11.19345,-22.2233 25.00128,-22.2233 13.80782,0 25.00127,9.9497 25.00127,22.2233 z"
           style="fill:#4f4f4f;fill-opacity:1;fill-rule:nonzero;stroke:none" />
        <path
           id="path10854"
           d="m 84.47542,1029.5542 c 0,12.0144 -10.93019,21.7539 -24.41325,21.7539 -13.48308,0 -24.41327,-9.7395 -24.41327,-21.7539 0,-12.0144 10.93019,-21.754 24.41327,-21.754 13.48306,0 24.41325,9.7396 24.41325,21.754 z"
           style="fill:#4f4f4f;fill-opacity:1;fill-rule:nonzero;stroke:none" />
        <path
           id="path10856"
           d="m 139.39213,1020.0297 c 0,12.2736 -11.19345,22.2234 -25.00127,22.2234 -13.80783,0 -25.00128,-9.9498 -25.00128,-22.2234 0,-12.2736 11.19345,-22.22335 25.00128,-22.22335 13.80782,0 25.00127,9.94975 25.00127,22.22335 z"
           style="fill:#4f4f4f;fill-opacity:1;fill-rule:nonzero;stroke:none" />
        <path
           id="path10858"
           d="m 138.06218,1019.7544 c 0,11.8052 -11.21344,21.3752 -25.04592,21.3752 -13.83248,0 -25.04591,-9.57 -25.04591,-21.3752 0,-11.8051 11.21343,-21.37511 25.04591,-21.37511 13.83248,0 25.04592,9.57001 25.04592,21.37511 z"
           style="fill:#4f4f4f;fill-opacity:1;fill-rule:nonzero;stroke:none" />
        <path
           id="path10860"
           d="m 90.95831,1047.975 c -7.9716,1.3183 -15.50224,-3.8048 -16.82016,-11.4427 -1.31791,-7.638 4.07596,-14.8984 12.04756,-16.2166 7.9716,-1.3183 15.50224,3.8048 16.82016,11.4428 1.31792,7.6379 -4.07596,14.8983 -12.04756,16.2165 z"
           style="fill:#4f4f4f;fill-opacity:1;fill-rule:nonzero;stroke:none" />
        <path
           id="path10862"
           d="m 91.26841,1046.5778 c -7.83783,1.3182 -15.2421,-3.8049 -16.5379,-11.4428 -1.2958,-7.6379 4.00756,-14.8984 11.84539,-16.2166 7.83783,-1.3183 15.24211,3.8048 16.53791,11.4428 1.29579,7.6379 -4.00757,14.8983 -11.8454,16.2166 z"
           style="fill:#4f4f4f;fill-opacity:1;fill-rule:nonzero;stroke:none" />
      </g>
    </g>
    <g
       transform="matrix(0.31803451,0,0,0.13365553,21.113048,-8.6111452)"
       id="g10694"
       style="display:inline">
      <g
         id="g10692">
        <path
           style="fill:#729fcf;fill-opacity:1;fill-rule:nonzero;stroke:none"
           d="m 104.7944,978.86598 c 0,13.52888 -13.79395,24.49622 -30.80965,24.49622 -17.01571,0 -30.80966,-10.96734 -30.80966,-24.49622 0,-13.52887 13.79395,-24.4962 30.80966,-24.4962 17.0157,0 30.80965,10.96733 30.80965,24.4962 z"
           id="path10654" />
        <path
           style="fill:#eeeeec;fill-opacity:1;fill-rule:nonzero;stroke:none"
           d="m 103.42412,979.70978 c 0,13.43025 -13.23431,24.31762 -29.55965,24.31762 -16.32535,0 -29.55966,-10.88737 -29.55966,-24.31762 0,-13.43026 13.23431,-24.31763 29.55966,-24.31763 16.32534,0 29.55965,10.88737 29.55965,24.31763 z"
           id="path10656" />
        <path
           style="fill:#eeeeec;fill-opacity:1;fill-rule:nonzero;stroke:none"
           d="m 106.05711,1009.9282 c 0,12.2736 -11.19345,22.2233 -25.00127,22.2233 -13.80783,0 -25.00128,-9.9497 -25.00128,-22.2233 0,-12.27363 11.19345,-22.22337 25.00128,-22.22337 13.80782,0 25.00127,9.94974 25.00127,22.22337 z"
           id="path10658" />
        <path
           style="fill:#729fcf;fill-opacity:1;fill-rule:nonzero;stroke:none"
           d="m 125.75508,992.7556 c 0,12.2736 -11.19345,22.2234 -25.00127,22.2234 -13.80783,0 -25.00128,-9.9498 -25.00128,-22.2234 0,-12.27362 11.19345,-22.22336 25.00128,-22.22336 13.80782,0 25.00127,9.94974 25.00127,22.22336 z"
           id="path10660" />
        <path
           style="fill:#729fcf;fill-opacity:1;fill-rule:nonzero;stroke:none"
           d="m 70.19668,999.82666 c 0,12.27364 -11.19345,22.22334 -25.00127,22.22334 -13.80783,0 -25.00128,-9.9497 -25.00128,-22.22334 0,-12.27362 11.19345,-22.22336 25.00128,-22.22336 13.80782,0 25.00127,9.94974 25.00127,22.22336 z"
           id="path10662" />
        <path
           style="fill:#eeeeec;fill-opacity:1;fill-rule:nonzero;stroke:none"
           d="m 72.61576,1000.9598 c 0,12.2736 -11.47328,22.2233 -25.62628,22.2233 -14.153,0 -25.62627,-9.9497 -25.62627,-22.2233 0,-12.27364 11.47327,-22.22338 25.62627,-22.22338 14.153,0 25.62628,9.94974 25.62628,22.22338 z"
           id="path10664" />
        <path
           style="fill:#729fcf;fill-opacity:1;fill-rule:nonzero;stroke:none"
           d="m 40.3972,1019.2721 c 0,9.9026 -8.93215,17.9302 -19.95051,17.9302 -11.01837,0 -19.95051,-8.0276 -19.95051,-17.9302 0,-9.9026 8.93214,-17.9302 19.95051,-17.9302 11.01836,0 19.95051,8.0276 19.95051,17.9302 z"
           id="path10666" />
        <path
           style="fill:#eeeeec;fill-opacity:1;fill-rule:nonzero;stroke:none"
           d="m 40.95786,1019.699 c 0,9.3048 -8.77225,16.8479 -19.59337,16.8479 -10.82112,0 -19.59338,-7.5431 -19.59338,-16.8479 0,-9.3049 8.77226,-16.848 19.59338,-16.848 10.82112,0 19.59337,7.5431 19.59337,16.848 z"
           id="path10668" />
        <path
           style="fill:#eeeeec;fill-opacity:1;fill-rule:nonzero;stroke:none"
           d="m 126.18719,994.88834 c 0,12.86536 -11.39333,23.29476 -25.44771,23.29476 -14.05438,0 -25.44771,-10.4294 -25.44771,-23.29476 0,-12.86535 11.39333,-23.29478 25.44771,-23.29478 14.05438,0 25.44771,10.42943 25.44771,23.29478 z"
           id="path10670" />
        <path
           style="fill:#729fcf;fill-opacity:1;fill-rule:nonzero;stroke:none"
           d="m 150.50382,1000.3317 c 0,12.2737 -11.19345,22.2234 -25.00127,22.2234 -13.80783,0 -25.00128,-9.9497 -25.00128,-22.2234 0,-12.27358 11.19345,-22.22332 25.00128,-22.22332 13.80782,0 25.00127,9.94974 25.00127,22.22332 z"
           id="path10672" />
        <path
           style="fill:#eeeeec;fill-opacity:1;fill-rule:nonzero;stroke:none"
           d="m 149.75861,1000.2455 c 0,11.5833 -11.2734,20.9733 -25.17984,20.9733 -13.90645,0 -25.17985,-9.39 -25.17985,-20.9733 0,-11.58327 11.2734,-20.97337 25.17985,-20.97337 13.90644,0 25.17984,9.3901 25.17984,20.97337 z"
           id="path10674" />
        <path
           style="fill:#729fcf;fill-opacity:1;fill-rule:nonzero;stroke:none"
           d="m 41.91242,1033.6668 c 0,6.5552 -5.201,11.8693 -11.61676,11.8693 -6.41575,0 -11.61675,-5.3141 -11.61675,-11.8693 0,-6.5553 5.201,-11.8693 11.61675,-11.8693 6.41576,0 11.61676,5.314 11.61676,11.8693 z"
           id="path10676" />
        <path
           style="fill:#eeeeec;fill-opacity:1;fill-rule:nonzero;stroke:none"
           d="m 42.26694,1032.9241 c 0,6.4566 -5.12105,11.6907 -11.43818,11.6907 -6.31714,0 -11.43819,-5.2341 -11.43819,-11.6907 0,-6.4566 5.12105,-11.6908 11.43819,-11.6908 6.31713,0 11.43818,5.2342 11.43818,11.6908 z"
           id="path10678" />
        <path
           style="fill:#729fcf;fill-opacity:1;fill-rule:nonzero;stroke:none"
           d="m 84.33882,1030.1312 c 0,12.2737 -11.19345,22.2234 -25.00127,22.2234 -13.80783,0 -25.00128,-9.9497 -25.00128,-22.2234 0,-12.2736 11.19345,-22.2233 25.00128,-22.2233 13.80782,0 25.00127,9.9497 25.00127,22.2233 z"
           id="path10680" />
        <path
           style="fill:#eeeeec;fill-opacity:1;fill-rule:nonzero;stroke:none"
           d="m 84.47542,1029.5542 c 0,12.0144 -10.93019,21.7539 -24.41325,21.7539 -13.48308,0 -24.41327,-9.7395 -24.41327,-21.7539 0,-12.0144 10.93019,-21.754 24.41327,-21.754 13.48306,0 24.41325,9.7396 24.41325,21.754 z"
           id="path10682" />
        <path
           style="fill:#729fcf;fill-opacity:1;fill-rule:nonzero;stroke:none"
           d="m 139.39213,1020.0297 c 0,12.2736 -11.19345,22.2234 -25.00127,22.2234 -13.80783,0 -25.00128,-9.9498 -25.00128,-22.2234 0,-12.2736 11.19345,-22.22335 25.00128,-22.22335 13.80782,0 25.00127,9.94975 25.00127,22.22335 z"
           id="path10684" />
        <path
           style="fill:#eeeeec;fill-opacity:1;fill-rule:nonzero;stroke:none"
           d="m 138.06218,1019.7544 c 0,11.8052 -11.21344,21.3752 -25.04592,21.3752 -13.83248,0 -25.04591,-9.57 -25.04591,-21.3752 0,-11.8051 11.21343,-21.37511 25.04591,-21.37511 13.83248,0 25.04592,9.57001 25.04592,21.37511 z"
           id="path10686" />
        <path
           style="fill:#729fcf;fill-opacity:1;fill-rule:nonzero;stroke:none"
           d="m 90.95831,1047.975 c -7.9716,1.3183 -15.50224,-3.8048 -16.82016,-11.4427 -1.31791,-7.638 4.07596,-14.8984 12.04756,-16.2166 7.9716,-1.3183 15.50224,3.8048 16.82016,11.4428 1.31792,7.6379 -4.07596,14.8983 -12.04756,16.2165 z"
           id="path10688" />
        <path
           style="fill:#eeeeec;fill-opacity:1;fill-rule:nonzero;stroke:none"
           d="m 91.26841,1046.5778 c -7.83783,1.3182 -15.2421,-3.8049 -16.5379,-11.4428 -1.2958,-7.6379 4.00756,-14.8984 11.84539,-16.2166 7.83783,-1.3183 15.24211,3.8048 16.53791,11.4428 1.29579,7.6379 -4.00757,14.8983 -11.8454,16.2166 z"
           id="path10690" />
      </g>
    </g>
    <g
       id="flowRoot10720"
       style="font-style:normal;font-variant:normal;font-weight:normal;font-stretch:normal;font-size:26.66666794px;line-height:1.25;font-family:'Hippie Movement';-inkscape-font-specification:'Hippie Movement';letter-spacing:0px;word-spacing:0px;display:inline;fill:#e8addf;fill-opacity:1;stroke:#612547;stroke-width:1.75748038;stroke-miterlimit:4;stroke-dasharray:none;stroke-opacity:1"
       transform="matrix(0.26458333,0,0,0.26458333,-1.3019652,149.47016)"
       aria-label="Uppers">
      <path
         id="path858"
         d="m 153.80729,-99.590598 q -0.98958,-0.169271 -3.16406,0.638021 -2.20052,0.807292 -2.83854,1.731771 -0.18229,0.273438 -0.23438,0.585938 -0.0521,0.117187 -0.0781,0.221354 -0.33854,1.080729 0.89844,1.861979 0.15625,0.104167 0.42968,0.247396 0.49479,1.210937 0.85938,2.851563 0.49479,2.304687 0.26041,3.710937 -0.15625,0.924479 -0.71614,1.497396 -0.5599,0.585938 -1.22396,0.507813 -0.71615,0.130208 -1.36719,-0.403646 -0.58593,-0.46875 -0.95052,-1.276042 -0.026,-0.247396 -0.0781,-0.846354 -0.11719,-1.458334 -0.11719,-2.148438 0.026,-0.9375 0.19531,-1.770833 0.10417,-0.520834 0.49479,-1.510417 0.39063,-1.002604 0.40365,-1.627604 0.15625,-0.390625 0.22135,-0.768229 0.15625,-0.976563 -0.1302,-1.627605 -0.10417,-0.234375 -0.3125,-0.377604 -0.32553,-0.455729 -0.9375,-0.625 -0.67709,-0.182291 -1.71875,0.130209 -0.98959,0.286458 -1.96615,1.080729 -0.48177,0.377604 -1.13281,0.976562 -0.58594,0.546875 -0.70313,0.716146 -0.625,0.651042 -0.66406,1.25 -0.15625,0.364584 -0.13021,0.742188 -0.0651,0.403646 0.11719,0.807291 0.23437,0.520834 0.83333,0.76823 0.33854,0.182291 0.83334,0.247396 0.0651,0.247395 0.23437,0.924479 0.14323,0.585937 0.22135,0.924479 0.2474,1.106771 0.3125,2.565104 0.0391,1.015625 -0.013,2.65625 -0.0391,1.263021 0.20834,2.135417 0.58593,2.161459 2.55208,2.929688 1.27604,0.494791 3.95833,0.572916 1.28907,0.03906 2.5,-0.07813 1.26302,-0.117187 1.96615,-0.455729 1.52344,-0.729166 1.74479,-2.695312 0.11719,-1.08073 -1.02864,-5.104167 -0.0391,-0.950521 -0.026,-1.640625 0.026,-1.171875 0.33855,-2.48698 0.22135,-0.9375 0.57291,-1.953125 0.20834,-0.442708 0.32552,-0.846354 0.33854,-0.820312 0.42969,-1.09375 0.0391,-0.104167 0.0651,-0.221354 0.46875,-1.289063 0.16928,-2.317709 -0.33855,-1.171875 -1.61459,-1.40625 z" />
      <path
         id="path860"
         d="m 161.54167,-87.311951 q -0.46875,-0.416667 -0.53386,-1.458334 -0.0651,-1.015625 0.27344,-1.614583 0.0781,-0.15625 0.48177,-0.325521 0.0651,-0.01302 0.20834,-0.05208 0.11718,-0.03906 0.19531,-0.0651 0.16927,-0.06511 0.36458,-0.07813 0.19531,-0.02604 0.39063,0.03906 0.18229,0.07813 0.3125,0.234375 0.33854,0.455729 -0.14323,1.757813 -0.10417,0.234375 -0.2474,0.46875 -0.35156,0.559896 -0.74219,0.898437 -0.40364,0.338542 -0.55989,0.195313 z m 0.97656,5.820313 q -0.15625,-0.690105 0.61198,-1.341146 0.26042,-0.208334 0.84635,-0.61198 0.74219,-0.507812 1.05469,-0.742187 3.0599,-2.278646 3.6849,-6.132813 0.0781,-0.546875 0.0781,-0.481771 0.27344,-2.760417 -3.52864,-3.138021 -1.91407,-0.195312 -4.19271,0.208334 -0.27344,0.03906 -0.54688,0.07813 -0.83333,0.130208 -1.58854,0.364583 -0.16927,0.05208 -0.32552,0.117187 -0.78125,0.273438 -1.30208,1.015626 -0.54688,0.807291 -0.13021,1.315104 0.15625,0.208333 0.50781,0.520833 0.40365,0.377604 0.54688,0.520833 0.61197,0.651042 0.58593,1.39323 0.026,0.286458 0.0391,0.598958 0,0.716146 -0.13021,1.861979 0,0.182292 0,0.351563 -0.026,0.924479 -0.0911,1.809896 -0.013,0.195312 -0.026,0.390625 -0.0781,3.489583 -1.3151,5.507813 -0.10417,0.247395 -0.22136,0.48177 -0.0781,0.169271 -0.0391,0.833334 0.0391,0.208333 0.11719,0.390625 0.0911,0.182291 0.20833,0.3125 0.625,0.651041 2.78646,0.911458 2.12239,0.260417 3.39844,-0.130208 1.28906,-0.390625 1.79687,-1.028646 0.53386,-0.664063 0.14323,-1.484375 -0.13021,-0.286458 -1.48437,-1.471354 -1.1849,-1.041667 -1.48438,-2.421875 z" />
      <path
         id="path862"
         d="m 174.30208,-87.311951 q -0.46875,-0.416667 -0.53385,-1.458334 -0.0651,-1.015625 0.27344,-1.614583 0.0781,-0.15625 0.48177,-0.325521 0.0651,-0.01302 0.20833,-0.05208 0.11719,-0.03906 0.19531,-0.0651 0.16927,-0.06511 0.36459,-0.07813 0.19531,-0.02604 0.39062,0.03906 0.18229,0.07813 0.3125,0.234375 0.33854,0.455729 -0.14323,1.757813 -0.10416,0.234375 -0.24739,0.46875 -0.35157,0.559896 -0.74219,0.898437 -0.40365,0.338542 -0.5599,0.195313 z m 0.97657,5.820313 q -0.15625,-0.690105 0.61198,-1.341146 0.26041,-0.208334 0.84635,-0.61198 0.74219,-0.507812 1.05469,-0.742187 3.05989,-2.278646 3.68489,-6.132813 0.0781,-0.546875 0.0781,-0.481771 0.27344,-2.760417 -3.52865,-3.138021 -1.91406,-0.195312 -4.19271,0.208334 -0.27343,0.03906 -0.54687,0.07813 -0.83333,0.130208 -1.58854,0.364583 -0.16927,0.05208 -0.32552,0.117187 -0.78125,0.273438 -1.30209,1.015626 -0.54687,0.807291 -0.13021,1.315104 0.15625,0.208333 0.50782,0.520833 0.40364,0.377604 0.54687,0.520833 0.61198,0.651042 0.58594,1.39323 0.026,0.286458 0.0391,0.598958 0,0.716146 -0.13021,1.861979 0,0.182292 0,0.351563 -0.026,0.924479 -0.0911,1.809896 -0.013,0.195312 -0.026,0.390625 -0.0781,3.489583 -1.31511,5.507813 -0.10416,0.247395 -0.22135,0.48177 -0.0781,0.169271 -0.0391,0.833334 0.0391,0.208333 0.11718,0.390625 0.0911,0.182291 0.20834,0.3125 0.625,0.651041 2.78645,0.911458 2.1224,0.260417 3.39844,-0.130208 1.28906,-0.390625 1.79688,-1.028646 0.53385,-0.664063 0.14323,-1.484375 -0.13021,-0.286458 -1.48438,-1.471354 -1.18489,-1.041667 -1.48437,-2.421875 z" />
      <path
         id="path864"
         d="m 186.52865,-90.332785 q 0.40364,-0.690104 0.9375,-1.028646 0.66406,-0.429687 1.34114,-0.234375 0.22136,0.06511 0.35157,0.221355 0.15625,0.182291 0.0781,0.364583 -0.0391,0.104167 -0.18229,0.208333 -0.41667,0.299479 -0.91146,0.403646 -1.53646,0.351563 -1.70573,0.533854 -0.0651,-0.169271 0.0911,-0.46875 z m 5.20833,2.213542 q -0.55989,-0.455729 -2.53906,0.638021 -2.40886,1.341146 -2.90365,1.419271 -1.02864,0.169271 -1.09375,-0.364584 -0.0521,-0.403645 0.50781,-1.471354 0.19532,-0.377604 1.00261,-0.585937 0.24739,-0.0651 0.78125,-0.15625 0.58594,-0.117188 0.85937,-0.182292 2.27865,-0.520833 2.56511,-2.213542 0.14323,-0.820312 -0.42969,-1.5625 -0.6901,-0.898437 -2.16146,-1.171875 -1.70573,-0.325521 -3.20312,0.872396 -1.64063,1.302083 -2.56511,4.101563 -0.22135,0.651041 -0.29948,3.203125 -0.0521,1.640625 0.44271,3.268229 0.67709,2.213542 2.09636,3.033854 1.45833,0.846355 4.45312,-0.117187 2.77344,-0.898438 3.30729,-1.875 0.46875,-0.859375 0.1823,-3.528646 -0.28646,-2.721354 -1.00261,-3.307292 z" />
      <path
         id="path866"
         d="m 199.99219,-84.655701 q -0.2474,-0.859375 -0.29948,-1.705729 -0.013,-0.325521 0,-0.625 0.026,-0.403646 0.10417,-0.742188 0.0521,-0.195312 0.10416,-0.364583 0.29948,-0.976563 0.9375,-1.145834 0.37761,-0.143229 0.61198,0.286459 0.013,0.03906 0.28646,0.846354 0.0391,0.15625 0.0651,0.338542 0.013,0.09114 0.0391,0.221354 0.0521,0.02604 0.10416,0.0651 0.0911,0.07813 0.16928,0.117187 0.0391,0.02604 0.0521,0.03906 0.11719,0.03906 0.19531,0.0651 0.0391,0 0.0651,0.01302 0.23437,0.01302 0.4427,0 0.0391,0 0.0651,-0.01302 0,0 0.013,0 0.13021,-0.02604 1.35417,-0.03906 0.80729,-0.01302 1.01562,-0.442709 0.33854,-0.651041 0.15625,-1.848958 -0.0391,-0.286459 -0.19531,-1.028646 -0.14323,-0.664063 -0.18229,-1.028646 -0.0521,-0.260417 -0.14323,-0.494792 -0.0781,-0.234375 -0.18229,-0.442708 -0.14323,-0.169271 -0.32553,-0.299479 -0.95052,-0.690104 -2.38281,0.169271 -0.39062,0.16927 -2.92969,3.138021 0.0781,-0.533855 0.19532,-1.041667 0.0521,-0.247396 0.11718,-0.481771 0.0651,-0.247396 0.14323,-0.494792 0.23438,-0.729166 -0.13021,-1.25 -0.35156,-0.507812 -0.9375,-0.377604 -0.15625,0.01302 -0.32552,0.02604 -1.23698,0.130208 -1.74479,0.377604 -0.13021,0.0651 -0.39062,0.195312 -0.26042,0.130209 -0.37761,0.195313 -0.54687,0.260417 -0.76823,0.520833 -0.15625,0.169271 -0.27343,0.403646 -0.20834,0.46875 -0.22136,0.885417 -0.013,0.455729 0.2474,0.585937 0.3125,0.195313 0.52083,0.351563 0.13021,0.104167 0.2474,0.195312 0.13021,0.104167 0.23437,0.195313 0.11719,0.117187 0.22136,0.234375 0.3125,0.403646 0.4427,1.041667 0.0391,0.195312 0.0651,0.403646 0,0.221354 0.026,0.729166 -0.10417,0.390625 -0.28646,1.080729 -0.10416,0.286459 -0.23437,0.572917 -0.50782,1.184896 -1.11979,2.226563 -0.15625,0.247396 -0.32553,0.494791 -0.14322,0.247396 -0.28645,0.481771 -0.0911,0.169271 -0.19532,0.833334 -0.013,0.208333 0.013,0.390625 0.0391,0.182291 0.10417,0.3125 0.53386,0.9375 3.04688,1.002604 0.24739,0.01302 0.48177,0 0.22135,0 0.45573,-0.02604 1.875,-0.221354 2.42187,-1.432291 0.54688,-1.250001 -0.33854,-3.307292 -0.11719,-0.260417 -0.16927,-0.403646 z" />
      <path
         id="path868"
         d="m 217.04948,-85.996847 q -0.78125,-1.5625 -2.48698,-2.161458 -0.61198,-0.221355 -1.74479,-0.859376 -1.25,-0.716145 -1.38021,-1.002604 -0.3125,-0.729166 0.0391,-1.302083 0.44271,-0.729167 1.32813,-0.625 0.41666,0.05208 0.6901,0.351562 0.26042,0.29948 0.15625,0.61198 -0.013,0.03906 -0.72916,0.78125 -0.32553,0.351562 -0.10417,0.572916 0.11719,0.130209 0.48177,0.15625 0.96354,0.07813 1.78385,-0.234375 0.91146,-0.338541 1.1849,-1.002604 0.26042,-0.625 -0.18229,-1.302083 -0.42969,-0.638021 -1.22396,-0.963542 -1.21094,-0.481771 -3.34635,-0.260417 -1.06771,0.117188 -1.67969,0.338542 -0.97656,0.364583 -1.52344,1.184896 -0.5599,0.820312 -0.42969,1.692708 0.14323,1.054688 1.40625,1.86198 0.29948,0.195312 2.39584,1.223958 0.82031,0.390625 1.08073,1.028646 0.23437,0.559896 -0.0651,1.028646 -0.3125,0.481771 -0.95052,0.520833 -0.71615,0.03906 -1.53646,-0.546875 -1.14583,-0.833333 -1.28906,-0.833333 -0.76823,-0.03906 -1.28906,0.989583 -1.00261,1.992188 -0.42969,3.255209 0.44271,0.976562 1.96615,1.835937 1.44531,0.807292 2.70833,0.924479 2.10937,0.182292 3.76302,-1.197916 1.39323,-1.184896 1.75781,-3.059896 0.3125,-1.666667 -0.35156,-3.007813 z" />
    </g>
  </g>
</svg>
