<?xml version="1.0" encoding="UTF-8" standalone="no"?>
<svg
   xmlns:dc="http://purl.org/dc/elements/1.1/"
   xmlns:cc="http://creativecommons.org/ns#"
   xmlns:rdf="http://www.w3.org/1999/02/22-rdf-syntax-ns#"
   xmlns:svg="http://www.w3.org/2000/svg"
   xmlns="http://www.w3.org/2000/svg"
   xmlns:sodipodi="http://sodipodi.sourceforge.net/DTD/sodipodi-0.dtd"
   xmlns:inkscape="http://www.inkscape.org/namespaces/inkscape"
   id="svg14396"
   version="1.1"
   viewBox="0 0 47.650336 13.615023"
   height="13.615195mm"
   width="47.650936mm"
   sodipodi:docname="pm-screen-label-downers-1.svg"
   inkscape:version="0.92.3 (2405546, 2018-03-11)">
  <sodipodi:namedview
     pagecolor="#ffffff"
     bordercolor="#666666"
     borderopacity="1"
     objecttolerance="10"
     gridtolerance="10"
     guidetolerance="10"
     inkscape:pageopacity="0"
     inkscape:pageshadow="2"
     inkscape:window-width="1366"
     inkscape:window-height="713"
     id="namedview958"
     showgrid="false"
     inkscape:zoom="3.4209667"
     inkscape:cx="90.047874"
     inkscape:cy="-2.3150062"
     inkscape:window-x="0"
     inkscape:window-y="0"
     inkscape:window-maximized="1"
     inkscape:current-layer="svg14396"
     fit-margin-top="0"
     fit-margin-left="0"
     fit-margin-right="0"
     fit-margin-bottom="0" />
  <defs
     id="defs14390" />
  <metadata
     id="metadata14393">
    <rdf:RDF>
      <cc:Work
         rdf:about="">
        <dc:format>image/svg+xml</dc:format>
        <dc:type
           rdf:resource="http://purl.org/dc/dcmitype/StillImage" />
        <dc:title></dc:title>
      </cc:Work>
    </rdf:RDF>
  </metadata>
  <g
     style="display:inline;fill:#4f4f4f;fill-opacity:1"
     id="g10908"
     transform="matrix(0.31765272,0,0,0.13349509,-0.15761293,-126.86915)">
    <g
       style="fill:#4f4f4f;fill-opacity:1"
       id="g10906">
      <path
         inkscape:connector-curvature="0"
         id="path10868"
         d="m 104.7944,978.86598 c 0,13.52888 -13.79395,24.49622 -30.80965,24.49622 -17.01571,0 -30.80966,-10.96734 -30.80966,-24.49622 0,-13.52887 13.79395,-24.4962 30.80966,-24.4962 17.0157,0 30.80965,10.96733 30.80965,24.4962 z"
         style="fill:#4f4f4f;fill-opacity:1;fill-rule:nonzero;stroke:none" />
      <path
         inkscape:connector-curvature="0"
         id="path10870"
         d="m 103.42412,979.70978 c 0,13.43025 -13.23431,24.31762 -29.55965,24.31762 -16.32535,0 -29.55966,-10.88737 -29.55966,-24.31762 0,-13.43026 13.23431,-24.31763 29.55966,-24.31763 16.32534,0 29.55965,10.88737 29.55965,24.31763 z"
         style="fill:#4f4f4f;fill-opacity:1;fill-rule:nonzero;stroke:none" />
      <path
         inkscape:connector-curvature="0"
         id="path10872"
         d="m 106.05711,1009.9282 c 0,12.2736 -11.19345,22.2233 -25.00127,22.2233 -13.80783,0 -25.00128,-9.9497 -25.00128,-22.2233 0,-12.27363 11.19345,-22.22337 25.00128,-22.22337 13.80782,0 25.00127,9.94974 25.00127,22.22337 z"
         style="fill:#4f4f4f;fill-opacity:1;fill-rule:nonzero;stroke:none" />
      <path
         inkscape:connector-curvature="0"
         id="path10874"
         d="m 125.75508,992.7556 c 0,12.2736 -11.19345,22.2234 -25.00127,22.2234 -13.80783,0 -25.00128,-9.9498 -25.00128,-22.2234 0,-12.27362 11.19345,-22.22336 25.00128,-22.22336 13.80782,0 25.00127,9.94974 25.00127,22.22336 z"
         style="fill:#4f4f4f;fill-opacity:1;fill-rule:nonzero;stroke:none" />
      <path
         inkscape:connector-curvature="0"
         id="path10876"
         d="m 70.19668,999.82666 c 0,12.27364 -11.19345,22.22334 -25.00127,22.22334 -13.80783,0 -25.00128,-9.9497 -25.00128,-22.22334 0,-12.27362 11.19345,-22.22336 25.00128,-22.22336 13.80782,0 25.00127,9.94974 25.00127,22.22336 z"
         style="fill:#4f4f4f;fill-opacity:1;fill-rule:nonzero;stroke:none" />
      <path
         inkscape:connector-curvature="0"
         id="path10878"
         d="m 72.61576,1000.9598 c 0,12.2736 -11.47328,22.2233 -25.62628,22.2233 -14.153,0 -25.62627,-9.9497 -25.62627,-22.2233 0,-12.27364 11.47327,-22.22338 25.62627,-22.22338 14.153,0 25.62628,9.94974 25.62628,22.22338 z"
         style="fill:#4f4f4f;fill-opacity:1;fill-rule:nonzero;stroke:none" />
      <path
         inkscape:connector-curvature="0"
         id="path10880"
         d="m 40.3972,1019.2721 c 0,9.9026 -8.93215,17.9302 -19.95051,17.9302 -11.01837,0 -19.95051,-8.0276 -19.95051,-17.9302 0,-9.9026 8.93214,-17.9302 19.95051,-17.9302 11.01836,0 19.95051,8.0276 19.95051,17.9302 z"
         style="fill:#4f4f4f;fill-opacity:1;fill-rule:nonzero;stroke:none" />
      <path
         inkscape:connector-curvature="0"
         id="path10882"
         d="m 40.95786,1019.699 c 0,9.3048 -8.77225,16.8479 -19.59337,16.8479 -10.82112,0 -19.59338,-7.5431 -19.59338,-16.8479 0,-9.3049 8.77226,-16.848 19.59338,-16.848 10.82112,0 19.59337,7.5431 19.59337,16.848 z"
         style="fill:#4f4f4f;fill-opacity:1;fill-rule:nonzero;stroke:none" />
      <path
         inkscape:connector-curvature="0"
         id="path10884"
         d="m 126.18719,994.88834 c 0,12.86536 -11.39333,23.29476 -25.44771,23.29476 -14.05438,0 -25.44771,-10.4294 -25.44771,-23.29476 0,-12.86535 11.39333,-23.29478 25.44771,-23.29478 14.05438,0 25.44771,10.42943 25.44771,23.29478 z"
         style="fill:#4f4f4f;fill-opacity:1;fill-rule:nonzero;stroke:none" />
      <path
         inkscape:connector-curvature="0"
         id="path10886"
         d="m 150.50382,1000.3317 c 0,12.2737 -11.19345,22.2234 -25.00127,22.2234 -13.80783,0 -25.00128,-9.9497 -25.00128,-22.2234 0,-12.27358 11.19345,-22.22332 25.00128,-22.22332 13.80782,0 25.00127,9.94974 25.00127,22.22332 z"
         style="fill:#4f4f4f;fill-opacity:1;fill-rule:nonzero;stroke:none" />
      <path
         inkscape:connector-curvature="0"
         id="path10888"
         d="m 149.75861,1000.2455 c 0,11.5833 -11.2734,20.9733 -25.17984,20.9733 -13.90645,0 -25.17985,-9.39 -25.17985,-20.9733 0,-11.58327 11.2734,-20.97337 25.17985,-20.97337 13.90644,0 25.17984,9.3901 25.17984,20.97337 z"
         style="fill:#4f4f4f;fill-opacity:1;fill-rule:nonzero;stroke:none" />
      <path
         inkscape:connector-curvature="0"
         id="path10890"
         d="m 41.91242,1033.6668 c 0,6.5552 -5.201,11.8693 -11.61676,11.8693 -6.41575,0 -11.61675,-5.3141 -11.61675,-11.8693 0,-6.5553 5.201,-11.8693 11.61675,-11.8693 6.41576,0 11.61676,5.314 11.61676,11.8693 z"
         style="fill:#4f4f4f;fill-opacity:1;fill-rule:nonzero;stroke:none" />
      <path
         inkscape:connector-curvature="0"
         id="path10892"
         d="m 42.26694,1032.9241 c 0,6.4566 -5.12105,11.6907 -11.43818,11.6907 -6.31714,0 -11.43819,-5.2341 -11.43819,-11.6907 0,-6.4566 5.12105,-11.6908 11.43819,-11.6908 6.31713,0 11.43818,5.2342 11.43818,11.6908 z"
         style="fill:#4f4f4f;fill-opacity:1;fill-rule:nonzero;stroke:none" />
      <path
         inkscape:connector-curvature="0"
         id="path10894"
         d="m 84.33882,1030.1312 c 0,12.2737 -11.19345,22.2234 -25.00127,22.2234 -13.80783,0 -25.00128,-9.9497 -25.00128,-22.2234 0,-12.2736 11.19345,-22.2233 25.00128,-22.2233 13.80782,0 25.00127,9.9497 25.00127,22.2233 z"
         style="fill:#4f4f4f;fill-opacity:1;fill-rule:nonzero;stroke:none" />
      <path
         inkscape:connector-curvature="0"
         id="path10896"
         d="m 84.47542,1029.5542 c 0,12.0144 -10.93019,21.7539 -24.41325,21.7539 -13.48308,0 -24.41327,-9.7395 -24.41327,-21.7539 0,-12.0144 10.93019,-21.754 24.41327,-21.754 13.48306,0 24.41325,9.7396 24.41325,21.754 z"
         style="fill:#4f4f4f;fill-opacity:1;fill-rule:nonzero;stroke:none" />
      <path
         inkscape:connector-curvature="0"
         id="path10898"
         d="m 139.39213,1020.0297 c 0,12.2736 -11.19345,22.2234 -25.00127,22.2234 -13.80783,0 -25.00128,-9.9498 -25.00128,-22.2234 0,-12.2736 11.19345,-22.22335 25.00128,-22.22335 13.80782,0 25.00127,9.94975 25.00127,22.22335 z"
         style="fill:#4f4f4f;fill-opacity:1;fill-rule:nonzero;stroke:none" />
      <path
         inkscape:connector-curvature="0"
         id="path10900"
         d="m 138.06218,1019.7544 c 0,11.8052 -11.21344,21.3752 -25.04592,21.3752 -13.83248,0 -25.04591,-9.57 -25.04591,-21.3752 0,-11.8051 11.21343,-21.37511 25.04591,-21.37511 13.83248,0 25.04592,9.57001 25.04592,21.37511 z"
         style="fill:#4f4f4f;fill-opacity:1;fill-rule:nonzero;stroke:none" />
      <path
         inkscape:connector-curvature="0"
         id="path10902"
         d="m 90.95831,1047.975 c -7.9716,1.3183 -15.50224,-3.8048 -16.82016,-11.4427 -1.31791,-7.638 4.07596,-14.8984 12.04756,-16.2166 7.9716,-1.3183 15.50224,3.8048 16.82016,11.4428 1.31792,7.6379 -4.07596,14.8983 -12.04756,16.2165 z"
         style="fill:#4f4f4f;fill-opacity:1;fill-rule:nonzero;stroke:none" />
      <path
         inkscape:connector-curvature="0"
         id="path10904"
         d="m 91.26841,1046.5778 c -7.83783,1.3182 -15.2421,-3.8049 -16.5379,-11.4428 -1.2958,-7.6379 4.00756,-14.8984 11.84539,-16.2166 7.83783,-1.3183 15.24211,3.8048 16.53791,11.4428 1.29579,7.6379 -4.00757,14.8983 -11.8454,16.2166 z"
         style="fill:#4f4f4f;fill-opacity:1;fill-rule:nonzero;stroke:none" />
    </g>
  </g>
  <g
     style="display:inline"
     transform="matrix(0.29487233,0,0,0.13365553,0.65549927,-127.5568)"
     id="layer1-6">
    <g
       id="g4449">
      <path
         inkscape:connector-curvature="0"
         style="fill:#729fcf;fill-opacity:1;fill-rule:nonzero;stroke:none"
         d="m 104.7944,978.86598 c 0,13.52888 -13.79395,24.49622 -30.80965,24.49622 -17.01571,0 -30.80966,-10.96734 -30.80966,-24.49622 0,-13.52887 13.79395,-24.4962 30.80966,-24.4962 17.0157,0 30.80965,10.96733 30.80965,24.4962 z"
         id="path2844" />
      <path
         inkscape:connector-curvature="0"
         style="fill:#eeeeec;fill-opacity:1;fill-rule:nonzero;stroke:none"
         d="m 103.42412,979.70978 c 0,13.43025 -13.23431,24.31762 -29.55965,24.31762 -16.32535,0 -29.55966,-10.88737 -29.55966,-24.31762 0,-13.43026 13.23431,-24.31763 29.55966,-24.31763 16.32534,0 29.55965,10.88737 29.55965,24.31763 z"
         id="path2844-3" />
      <path
         inkscape:connector-curvature="0"
         style="fill:#eeeeec;fill-opacity:1;fill-rule:nonzero;stroke:none"
         d="m 106.05711,1009.9282 c 0,12.2736 -11.19345,22.2233 -25.00127,22.2233 -13.80783,0 -25.00128,-9.9497 -25.00128,-22.2233 0,-12.27363 11.19345,-22.22337 25.00128,-22.22337 13.80782,0 25.00127,9.94974 25.00127,22.22337 z"
         id="path2844-9" />
      <path
         inkscape:connector-curvature="0"
         style="fill:#729fcf;fill-opacity:1;fill-rule:nonzero;stroke:none"
         d="m 125.75508,992.7556 c 0,12.2736 -11.19345,22.2234 -25.00127,22.2234 -13.80783,0 -25.00128,-9.9498 -25.00128,-22.2234 0,-12.27362 11.19345,-22.22336 25.00128,-22.22336 13.80782,0 25.00127,9.94974 25.00127,22.22336 z"
         id="path2844-5" />
      <path
         inkscape:connector-curvature="0"
         style="fill:#729fcf;fill-opacity:1;fill-rule:nonzero;stroke:none"
         d="m 70.19668,999.82666 c 0,12.27364 -11.19345,22.22334 -25.00127,22.22334 -13.80783,0 -25.00128,-9.9497 -25.00128,-22.22334 0,-12.27362 11.19345,-22.22336 25.00128,-22.22336 13.80782,0 25.00127,9.94974 25.00127,22.22336 z"
         id="path2844-11" />
      <path
         inkscape:connector-curvature="0"
         style="fill:#eeeeec;fill-opacity:1;fill-rule:nonzero;stroke:none"
         d="m 72.61576,1000.9598 c 0,12.2736 -11.47328,22.2233 -25.62628,22.2233 -14.153,0 -25.62627,-9.9497 -25.62627,-22.2233 0,-12.27364 11.47327,-22.22338 25.62627,-22.22338 14.153,0 25.62628,9.94974 25.62628,22.22338 z"
         id="path2844-11-1" />
      <path
         inkscape:connector-curvature="0"
         style="fill:#729fcf;fill-opacity:1;fill-rule:nonzero;stroke:none"
         d="m 40.3972,1019.2721 c 0,9.9026 -8.93215,17.9302 -19.95051,17.9302 -11.01837,0 -19.95051,-8.0276 -19.95051,-17.9302 0,-9.9026 8.93214,-17.9302 19.95051,-17.9302 11.01836,0 19.95051,8.0276 19.95051,17.9302 z"
         id="path2844-1" />
      <path
         inkscape:connector-curvature="0"
         style="fill:#eeeeec;fill-opacity:1;fill-rule:nonzero;stroke:none"
         d="m 40.95786,1019.699 c 0,9.3048 -8.77225,16.8479 -19.59337,16.8479 -10.82112,0 -19.59338,-7.5431 -19.59338,-16.8479 0,-9.3049 8.77226,-16.848 19.59338,-16.848 10.82112,0 19.59337,7.5431 19.59337,16.848 z"
         id="path2844-1-76" />
      <path
         inkscape:connector-curvature="0"
         style="fill:#eeeeec;fill-opacity:1;fill-rule:nonzero;stroke:none"
         d="m 126.18719,994.88834 c 0,12.86536 -11.39333,23.29476 -25.44771,23.29476 -14.05438,0 -25.44771,-10.4294 -25.44771,-23.29476 0,-12.86535 11.39333,-23.29478 25.44771,-23.29478 14.05438,0 25.44771,10.42943 25.44771,23.29478 z"
         id="path2844-5-4" />
      <path
         inkscape:connector-curvature="0"
         style="fill:#729fcf;fill-opacity:1;fill-rule:nonzero;stroke:none"
         d="m 150.50382,1000.3317 c 0,12.2737 -11.19345,22.2234 -25.00127,22.2234 -13.80783,0 -25.00128,-9.9497 -25.00128,-22.2234 0,-12.27358 11.19345,-22.22332 25.00128,-22.22332 13.80782,0 25.00127,9.94974 25.00127,22.22332 z"
         id="path2844-2" />
      <path
         inkscape:connector-curvature="0"
         style="fill:#eeeeec;fill-opacity:1;fill-rule:nonzero;stroke:none"
         d="m 149.75861,1000.2455 c 0,11.5833 -11.2734,20.9733 -25.17984,20.9733 -13.90645,0 -25.17985,-9.39 -25.17985,-20.9733 0,-11.58327 11.2734,-20.97337 25.17985,-20.97337 13.90644,0 25.17984,9.3901 25.17984,20.97337 z"
         id="path2844-2-2" />
      <path
         inkscape:connector-curvature="0"
         style="fill:#729fcf;fill-opacity:1;fill-rule:nonzero;stroke:none"
         d="m 41.91242,1033.6668 c 0,6.5552 -5.201,11.8693 -11.61676,11.8693 -6.41575,0 -11.61675,-5.3141 -11.61675,-11.8693 0,-6.5553 5.201,-11.8693 11.61675,-11.8693 6.41576,0 11.61676,5.314 11.61676,11.8693 z"
         id="path2844-1-7" />
      <path
         inkscape:connector-curvature="0"
         style="fill:#eeeeec;fill-opacity:1;fill-rule:nonzero;stroke:none"
         d="m 42.26694,1032.9241 c 0,6.4566 -5.12105,11.6907 -11.43818,11.6907 -6.31714,0 -11.43819,-5.2341 -11.43819,-11.6907 0,-6.4566 5.12105,-11.6908 11.43819,-11.6908 6.31713,0 11.43818,5.2342 11.43818,11.6908 z"
         id="path2844-1-7-2" />
      <path
         inkscape:connector-curvature="0"
         style="fill:#729fcf;fill-opacity:1;fill-rule:nonzero;stroke:none"
         d="m 84.33882,1030.1312 c 0,12.2737 -11.19345,22.2234 -25.00127,22.2234 -13.80783,0 -25.00128,-9.9497 -25.00128,-22.2234 0,-12.2736 11.19345,-22.2233 25.00128,-22.2233 13.80782,0 25.00127,9.9497 25.00127,22.2233 z"
         id="path2844-4" />
      <path
         inkscape:connector-curvature="0"
         style="fill:#eeeeec;fill-opacity:1;fill-rule:nonzero;stroke:none"
         d="m 84.47542,1029.5542 c 0,12.0144 -10.93019,21.7539 -24.41325,21.7539 -13.48308,0 -24.41327,-9.7395 -24.41327,-21.7539 0,-12.0144 10.93019,-21.754 24.41327,-21.754 13.48306,0 24.41325,9.7396 24.41325,21.754 z"
         id="path2844-4-2" />
      <path
         inkscape:connector-curvature="0"
         style="fill:#729fcf;fill-opacity:1;fill-rule:nonzero;stroke:none"
         d="m 139.39213,1020.0297 c 0,12.2736 -11.19345,22.2234 -25.00127,22.2234 -13.80783,0 -25.00128,-9.9498 -25.00128,-22.2234 0,-12.2736 11.19345,-22.22335 25.00128,-22.22335 13.80782,0 25.00127,9.94975 25.00127,22.22335 z"
         id="path2844-8" />
      <path
         inkscape:connector-curvature="0"
         style="fill:#eeeeec;fill-opacity:1;fill-rule:nonzero;stroke:none"
         d="m 138.06218,1019.7544 c 0,11.8052 -11.21344,21.3752 -25.04592,21.3752 -13.83248,0 -25.04591,-9.57 -25.04591,-21.3752 0,-11.8051 11.21343,-21.37511 25.04591,-21.37511 13.83248,0 25.04592,9.57001 25.04592,21.37511 z"
         id="path2844-8-1" />
      <path
         inkscape:connector-curvature="0"
         style="fill:#729fcf;fill-opacity:1;fill-rule:nonzero;stroke:none"
         d="m 90.95831,1047.975 c -7.9716,1.3183 -15.50224,-3.8048 -16.82016,-11.4427 -1.31791,-7.638 4.07596,-14.8984 12.04756,-16.2166 7.9716,-1.3183 15.50224,3.8048 16.82016,11.4428 1.31792,7.6379 -4.07596,14.8983 -12.04756,16.2165 z"
         id="path2844-1-7-6" />
      <path
         inkscape:connector-curvature="0"
         style="fill:#eeeeec;fill-opacity:1;fill-rule:nonzero;stroke:none"
         d="m 91.26841,1046.5778 c -7.83783,1.3182 -15.2421,-3.8049 -16.5379,-11.4428 -1.2958,-7.6379 4.00756,-14.8984 11.84539,-16.2166 7.83783,-1.3183 15.24211,3.8048 16.53791,11.4428 1.29579,7.6379 -4.00757,14.8983 -11.8454,16.2166 z"
         id="path2844-1-7-6-5" />
    </g>
  </g>
  <g
     aria-label="Downers"
     transform="matrix(0.26458333,0,0,0.26458333,-27.005687,30.149679)"
     style="font-style:normal;font-variant:normal;font-weight:normal;font-stretch:normal;font-size:26.66666794px;line-height:1.25;font-family:'Hippie Movement';-inkscape-font-specification:'Hippie Movement';letter-spacing:0px;word-spacing:0px;display:inline;fill:#e8addf;fill-opacity:1;stroke:#612547;stroke-width:1.75748038;stroke-miterlimit:4;stroke-dasharray:none;stroke-opacity:1"
     id="flowRoot10734">
    <path
       d="m 145.4349,-92.767681 q -0.0521,-0.208333 -0.13021,-0.651041 -0.0651,-0.429688 -0.11719,-0.651042 -0.14323,-0.78125 -0.32552,-1.315104 0.26042,-0.247396 0.61198,-0.117188 0.49479,0.182292 0.96354,0.950521 0.42969,0.703125 0.52083,1.380208 0.0521,0.325521 -0.026,0.598959 -0.013,0.03906 -0.0391,0.09115 -0.26042,0.625 -1.23698,0.833333 -0.0391,-0.182292 -0.11719,-0.559896 -0.0781,-0.364583 -0.10416,-0.559896 z m 6.32812,-1.119791 q -0.0651,-0.208334 -0.14323,-0.390625 -0.41666,-1.106771 -0.92448,-1.875001 -0.82031,-1.210937 -2.08333,-1.953125 -1.35417,-0.79427 -2.73438,-0.729166 -0.40364,-0.130209 -0.80729,-0.104167 -0.0651,0 -0.10416,-0.01302 -1.31511,-0.07813 -2.26563,0.07813 -0.70312,0.117188 -2.00521,0.78125 -1.15885,0.585938 -1.53646,1.236979 -0.29947,0.533855 -0.15625,1.263021 0.0911,0.494792 0.72917,0.963542 0,0 0.58594,0.3125 0.0391,0.02604 0.11719,0.0651 0,0.01302 0,0.01302 0.0391,0.03906 0.14323,0.143229 0.013,0.02604 0.0521,0.07813 0.013,0 0.013,0 0.0911,0.130209 0.20833,0.338542 0.013,0.03906 0.0391,0.09115 0.0391,0.09115 0.0521,0.104166 0.11719,0.325521 0.18229,0.742188 0.026,0.182292 0.013,0.143229 0.013,0.0651 0.026,0.208333 0.013,0.169271 0.013,0.429688 0,0.390625 -0.0391,0.950521 -0.026,0.390625 -0.0911,0.9375 -0.19532,0.46875 -0.29948,0.729167 -0.0911,0.247395 -0.16927,0.455729 -0.11719,0.234375 -0.26042,0.664062 -0.15625,0.46875 -0.2474,0.651042 -0.11718,0.351563 -0.20833,0.677083 -0.42969,1.484375 -0.11719,3.763021 0.0781,0.351563 0.18229,0.677084 0.13021,0.338541 0.28646,0.651041 0.91146,1.679688 2.89063,2.122396 1.13281,0.247396 3.42448,0 1.08073,-0.117187 1.67968,-0.3125 0.95052,-0.247395 1.79688,-0.911458 1.10677,-0.859375 1.82292,-2.552083 0.63802,-1.510417 0.85937,-3.320313 0.10417,-0.768229 0.0781,-1.627604 0,-0.234375 -0.013,-0.533855 0.0391,-1.5625 -0.98958,-4.947916 z"
       id="path1590"
       inkscape:connector-curvature="0" />
    <path
       d="m 160.07031,-87.845805 q -0.42968,0.390625 -1.5625,0.143229 -0.35156,-0.07813 -0.46875,-0.195313 -0.18229,-0.182291 -0.0781,-0.611979 0.28646,-1.158854 1.0026,-2.161458 0.19531,-0.273438 0.40365,-0.234375 0.13021,0.02604 0.24739,0.234375 0.46875,0.807291 0.66407,1.692708 0.16927,0.794271 -0.20834,1.132813 z m 5.02605,2.604166 q -0.0911,-0.143229 -0.26042,-0.481771 -0.15625,-0.3125 -0.27344,-0.48177 -0.0781,-0.15625 -0.16927,-0.338542 -0.92448,-1.653646 -0.91146,-1.627604 -0.11719,-0.260417 -0.22135,-0.494792 -0.11719,-0.260417 -0.19532,-0.520833 -0.11718,-0.3125 -0.33854,-1.210938 -0.19531,-0.768229 -0.3776,-1.197917 -0.59896,-1.432291 -1.8099,-1.822916 -1.17187,-0.390625 -2.39583,0.260416 -0.95052,0.507813 -1.66667,1.588542 -0.75521,1.145833 -1.32812,3.085938 -0.67709,2.304687 -0.95052,4.674479 -0.27344,2.330729 0.75521,3.294271 0.87239,0.833333 3.39843,1.028646 2.39584,0.182292 3.58073,0 2.05729,-0.325521 3.00782,-1.549479 0.16927,-0.221354 0.29947,-0.46875 0.11719,-0.247396 0.19532,-0.507813 0.32552,-1.653646 -0.13021,-2.734375 -0.0911,-0.247396 -0.20833,-0.494792 z"
       id="path1592"
       inkscape:connector-curvature="0" />
    <path
       d="m 191.76302,-90.814556 q -0.16927,-0.924479 -2.43489,-1.627604 -0.28646,-0.09115 -0.5599,-0.15625 -0.29948,-0.07813 -0.61198,-0.15625 -3.20312,-0.729167 -4.27083,-0.299479 -0.14323,0.05208 -0.26042,0.15625 -0.11719,0.104167 -0.19531,0.234375 -0.14323,0.442708 -0.0911,0.585938 0.0781,0.182291 0.14323,0.377604 0.10417,0.208333 0.19531,0.416666 0.33855,0.833334 0.48178,1.71875 0.026,0.221355 0.0521,0.429688 -0.40365,2.955729 -0.89844,4.296875 -1.73177,-2.330729 -2.36979,-3.971354 0.0651,-0.05208 0.0781,-0.05208 0.97657,-0.494791 1.32813,-0.79427 0.61198,-0.520834 0.50781,-1.158855 -0.16927,-0.924479 -2.43489,-1.627604 -0.28646,-0.09115 -0.5599,-0.15625 -0.29948,-0.07813 -0.625,-0.15625 -3.1901,-0.729167 -4.25781,-0.299479 -0.14323,0.05208 -0.26042,0.15625 -0.11719,0.104167 -0.19531,0.234375 -0.14323,0.442708 -0.0911,0.585938 0.0781,0.182291 0.14323,0.377604 0.10417,0.208333 0.19531,0.416666 0.33855,0.833334 0.48177,1.71875 0.026,0.221355 0.0521,0.429688 -0.40365,2.955729 -0.91146,4.296875 -3.03385,-4.127604 -2.65625,-5.859375 0.013,-0.02604 0.16927,-0.221354 0.0521,-0.0651 0.18229,-0.208334 0.15625,-0.16927 0.19531,-0.208333 0.3125,-0.3125 0.42969,-0.416667 0.22136,-0.16927 0.0781,-0.48177 -0.13021,-0.273438 -0.46875,-0.533855 -0.18229,-0.130208 -0.37761,-0.195312 -0.3125,-0.104167 -0.9375,-0.117188 -0.59896,-0.01302 -0.91146,-0.02604 -0.59895,-0.01302 -1.90104,0.286458 -0.18229,0.03906 -0.33854,0.07813 -0.63802,0.104167 -0.85937,0.559896 -0.22136,0.46875 0.22135,0.911458 0.14323,0.143229 0.28646,0.286459 0.13021,0.143229 0.26042,0.299479 1.80989,2.239583 2.60416,7.122396 -0.013,0.208333 -0.0391,0.403646 -0.11719,0.833333 -0.45573,1.5625 -0.0911,0.182292 -0.19531,0.351562 -0.0651,0.182292 -0.14323,0.351563 -0.0521,0.104167 0.11719,0.572917 0.0781,0.15625 0.19531,0.286458 0.13021,0.117187 0.28646,0.208333 0.44271,0.273438 3.59375,0.559896 2.90364,0.273438 3.29427,0.234375 0.19531,-0.02604 0.36458,-0.117187 0.16927,-0.09115 0.49479,-0.442709 0.36459,-0.377604 0.39063,-0.546875 0.0781,-0.416666 -0.5599,-0.950521 -0.78125,-0.677083 -0.96354,-1.09375 -0.74219,-1.614583 1.91406,-4.505208 0.27344,1.002604 0.625,3.125 -0.026,0.208333 -0.0521,0.403646 -0.11719,0.833333 -0.45573,1.5625 -0.0911,0.182292 -0.19531,0.351562 -0.0651,0.182292 -0.14323,0.351563 -0.0521,0.104167 0.11719,0.572917 0.0781,0.15625 0.20833,0.286458 0.11719,0.117187 0.27344,0.208333 0.45573,0.273438 3.59375,0.559896 2.90364,0.273438 3.29427,0.234375 0.19531,-0.02604 0.36458,-0.117187 0.16927,-0.09115 0.50781,-0.442709 0.35157,-0.377604 0.37761,-0.546875 0.0781,-0.416666 -0.5599,-0.950521 -0.78125,-0.677083 -0.96354,-1.09375 -0.71614,-1.536458 1.66667,-4.231771 1.79687,-2.03125 2.60416,-2.447917 0.97657,-0.494791 1.32813,-0.79427 0.61198,-0.520834 0.50781,-1.158855 z"
       id="path1594"
       inkscape:connector-curvature="0" />
    <path
       d="m 207.60938,-82.311951 q -0.88542,-1.25 -0.97657,-1.979167 -0.026,-0.208333 -0.0391,-0.416666 0,-0.221355 0.026,-0.442709 0.013,-0.195312 0.0521,-0.585937 0.0911,-0.859375 0.10416,-1.276042 0.013,-0.208333 0,-0.390625 0.15625,-3.802084 -0.54687,-4.869792 -0.18229,-0.169271 -0.40365,-0.299479 -1.19791,-0.690104 -2.99479,0.169271 -0.48177,0.15625 -3.67187,3.138021 0.10416,-0.533855 0.23437,-1.041667 0.0781,-0.247396 0.15625,-0.481771 0.0911,-0.247396 0.18229,-0.494792 0.28646,-0.729166 -0.16927,-1.25 -0.44271,-0.507812 -1.17187,-0.377604 -0.19532,0 -0.40365,0.02604 -1.54948,0.130208 -2.20052,0.377604 -0.3125,0.130208 -0.96354,0.390625 -0.67709,0.260417 -0.96354,0.520833 -0.19532,0.169271 -0.32552,0.390625 -0.26042,0.481771 -0.28646,0.898438 -0.013,0.455729 0.3125,0.585937 0.39062,0.195313 0.65104,0.351563 0.15625,0.104167 0.29948,0.195312 0.16927,0.104167 0.29948,0.195313 0.15625,0.117187 0.27343,0.221354 0.39063,0.416667 0.5599,1.054688 0.0521,0.195312 0.0911,0.403646 -0.013,0.221354 0.026,0.729166 -0.11719,0.364584 -0.35156,1.080729 -0.14323,0.286459 -0.29948,0.572917 -0.625,1.171875 -1.41927,2.213542 -0.19532,0.260417 -0.40365,0.507812 -0.16927,0.234375 -0.35156,0.481771 -0.11719,0.169271 -0.2474,0.820313 -0.013,0.221354 0.026,0.403646 0.0391,0.169271 0.13021,0.299479 0.66406,0.9375 3.81511,1.015625 0.3125,0.01302 0.61197,0 0.27344,0 0.57292,-0.02604 2.34375,-0.221354 3.02084,-1.432291 0.46875,-0.846355 0.24739,-1.783855 -0.13021,-0.520833 -0.66406,-1.523437 -0.14323,-0.260417 -0.20834,-0.403646 -0.3125,-0.859375 -0.3776,-1.705729 -0.013,-0.325521 0,-0.625 0.0391,-0.403646 0.13021,-0.742188 0.0651,-0.195312 0.13021,-0.364583 0.3776,-0.976563 1.17187,-1.145834 0.48177,-0.143229 0.76823,0.286459 0.013,0.02604 0.36459,0.846354 0.0391,0.15625 0.0781,0.338542 -0.013,-0.06511 0.16927,0.989583 0.013,0.208333 0.013,0.403646 -0.013,0.208333 -0.026,0.416666 -0.013,0.273438 -0.026,0.533855 -0.013,0.273437 -0.0391,0.533854 -0.026,0.273437 -0.0651,0.546875 0,0.221354 -0.0651,0.494792 -0.0651,0.260416 -0.28646,0.911458 -0.19531,0.598958 -0.26042,0.911458 -0.23437,1.054688 0.26042,1.575521 0.16927,0.143229 0.3776,0.221354 0.23438,0.01302 0.5599,0.03906 0.0651,0.01302 0.57292,0.0651 0.22135,0.03906 0.45573,0.03906 1.88802,-0.15625 2.92968,-0.755209 0.0911,-0.07813 0.16927,-0.15625 0.84636,-0.9375 0.36459,-1.627604 z"
       id="path1596"
       inkscape:connector-curvature="0" />
    <path
       d="m 213.66407,-90.332785 q 0.40364,-0.690104 0.9375,-1.028646 0.66406,-0.429687 1.34114,-0.234375 0.22136,0.06511 0.35156,0.221355 0.15625,0.182291 0.0781,0.364583 -0.0391,0.104167 -0.18229,0.208333 -0.41667,0.299479 -0.91146,0.403646 -1.53646,0.351563 -1.70573,0.533854 -0.0651,-0.169271 0.0911,-0.46875 z m 5.20833,2.213542 q -0.5599,-0.455729 -2.53906,0.638021 -2.40886,1.341146 -2.90365,1.419271 -1.02865,0.169271 -1.09375,-0.364584 -0.0521,-0.403645 0.50781,-1.471354 0.19532,-0.377604 1.00261,-0.585937 0.24739,-0.0651 0.78125,-0.15625 0.58593,-0.117188 0.85937,-0.182292 2.27865,-0.520833 2.56511,-2.213542 0.14323,-0.820312 -0.42969,-1.5625 -0.69011,-0.898437 -2.16146,-1.171875 -1.70573,-0.325521 -3.20312,0.872396 -1.64063,1.302083 -2.56511,4.101563 -0.22135,0.651041 -0.29948,3.203125 -0.0521,1.640625 0.44271,3.268229 0.67708,2.213542 2.09635,3.033854 1.45834,0.846355 4.45313,-0.117187 2.77344,-0.898438 3.30729,-1.875 0.46875,-0.859375 0.18229,-3.528646 -0.28646,-2.721354 -1.0026,-3.307292 z"
       id="path1598"
       inkscape:connector-curvature="0" />
    <path
       d="m 227.12761,-84.655701 q -0.2474,-0.859375 -0.29948,-1.705729 -0.013,-0.325521 0,-0.625 0.026,-0.403646 0.10416,-0.742188 0.0521,-0.195312 0.10417,-0.364583 0.29948,-0.976563 0.9375,-1.145834 0.37761,-0.143229 0.61198,0.286459 0.013,0.03906 0.28646,0.846354 0.0391,0.15625 0.0651,0.338542 0.013,0.09114 0.0391,0.221354 0.0521,0.02604 0.10416,0.0651 0.0911,0.07813 0.16927,0.117187 0.0391,0.02604 0.0521,0.03906 0.11718,0.03906 0.19531,0.0651 0.0391,0 0.0651,0.01302 0.23438,0.01302 0.44271,0 0.0391,0 0.0651,-0.01302 0,0 0.013,0 0.1302,-0.02604 1.35416,-0.03906 0.80729,-0.01302 1.01563,-0.442709 0.33854,-0.651041 0.15625,-1.848958 -0.0391,-0.286459 -0.19531,-1.028646 -0.14323,-0.664063 -0.1823,-1.028646 -0.0521,-0.260417 -0.14323,-0.494792 -0.0781,-0.234375 -0.18229,-0.442708 -0.14323,-0.169271 -0.32552,-0.299479 -0.95052,-0.690104 -2.38281,0.169271 -0.39063,0.16927 -2.92969,3.138021 0.0781,-0.533855 0.19531,-1.041667 0.0521,-0.247396 0.11719,-0.481771 0.0651,-0.247396 0.14323,-0.494792 0.23438,-0.729166 -0.13021,-1.25 -0.35156,-0.507812 -0.9375,-0.377604 -0.15625,0.01302 -0.32552,0.02604 -1.23698,0.130208 -1.74479,0.377604 -0.13021,0.0651 -0.39062,0.195312 -0.26042,0.130209 -0.37761,0.195313 -0.54687,0.260417 -0.76823,0.520833 -0.15625,0.169271 -0.27344,0.403646 -0.20833,0.46875 -0.22135,0.885417 -0.013,0.455729 0.2474,0.585937 0.3125,0.195313 0.52083,0.351563 0.13021,0.104167 0.2474,0.195312 0.1302,0.104167 0.23437,0.195313 0.11719,0.117187 0.22135,0.234375 0.3125,0.403646 0.44271,1.041667 0.0391,0.195312 0.0651,0.403646 0,0.221354 0.026,0.729166 -0.10417,0.390625 -0.28646,1.080729 -0.10417,0.286459 -0.23437,0.572917 -0.50782,1.184896 -1.1198,2.226563 -0.15625,0.247396 -0.32552,0.494791 -0.14323,0.247396 -0.28646,0.481771 -0.0911,0.169271 -0.19531,0.833334 -0.013,0.208333 0.013,0.390625 0.0391,0.182291 0.10417,0.3125 0.53385,0.9375 3.04687,1.002604 0.2474,0.01302 0.48178,0 0.22135,0 0.45572,-0.02604 1.875,-0.221354 2.42188,-1.432291 0.54687,-1.250001 -0.33854,-3.307292 -0.11719,-0.260417 -0.16927,-0.403646 z"
       id="path1600"
       inkscape:connector-curvature="0" />
    <path
       d="m 244.1849,-85.996847 q -0.78125,-1.5625 -2.48698,-2.161458 -0.61198,-0.221355 -1.74479,-0.859376 -1.25,-0.716145 -1.38021,-1.002604 -0.3125,-0.729166 0.0391,-1.302083 0.44271,-0.729167 1.32813,-0.625 0.41667,0.05208 0.6901,0.351562 0.26042,0.29948 0.15625,0.61198 -0.013,0.03906 -0.72916,0.78125 -0.32552,0.351562 -0.10417,0.572916 0.11719,0.130209 0.48177,0.15625 0.96354,0.07813 1.78386,-0.234375 0.91145,-0.338541 1.18489,-1.002604 0.26042,-0.625 -0.18229,-1.302083 -0.42969,-0.638021 -1.22396,-0.963542 -1.21094,-0.481771 -3.34635,-0.260417 -1.06771,0.117188 -1.67969,0.338542 -0.97656,0.364583 -1.52344,1.184896 -0.55989,0.820312 -0.42969,1.692708 0.14323,1.054688 1.40625,1.86198 0.29948,0.195312 2.39584,1.223958 0.82031,0.390625 1.08073,1.028646 0.23437,0.559896 -0.0651,1.028646 -0.3125,0.481771 -0.95052,0.520833 -0.71614,0.03906 -1.53646,-0.546875 -1.14583,-0.833333 -1.28906,-0.833333 -0.76823,-0.03906 -1.28906,0.989583 -1.00261,1.992188 -0.42969,3.255209 0.44271,0.976562 1.96615,1.835937 1.44531,0.807292 2.70833,0.924479 2.10938,0.182292 3.76302,-1.197916 1.39323,-1.184896 1.75781,-3.059896 0.3125,-1.666667 -0.35156,-3.007813 z"
       id="path1602"
       inkscape:connector-curvature="0" />
  </g>
</svg>
